<svg xmlns="http://www.w3.org/2000/svg" xmlns:xlink="http://www.w3.org/1999/xlink" width="1600" height="1100.8" viewBox="0 0 1600 1100.8"><defs><clipPath id="a"><rect width="1600" height="1100.8"/></clipPath></defs><rect width="1600" height="1100.8" fill="#d9d9d9"/><g clip-path="url(#a)"><path d="M-167.077,881.807a10.429,10.429,0,0,1-6.8-2.667,9.949,9.949,0,0,1-.667-14.133c80.267-87.6,261.733-304.534,283.333-336.933l.533-.667c290.8-364.4,305.733-520.8,305.867-522.4a9.96,9.96,0,1,1,19.867,1.467c-.4,6.4-14.133,162.4-310,533.067-22.933,34-204.533,251.333-284.667,338.933A10.225,10.225,0,0,1-167.077,881.807Z" transform="translate(-59.057 -1.407)" fill="#fff"/></g><g clip-path="url(#a)"><path d="M788,960.645a158.192,158.192,0,0,1-28.267-2.8c-30.667-5.733-81.2-52.933-151.333-118.267-48.667-45.467-104-96.933-162.667-143.733C318.4,594.512,364.4,463.312,386.669,400.245c3.2-9.067,6-16.933,7.6-23.067a10.113,10.113,0,0,1,12.267-7.067,10.007,10.007,0,0,1,7.067,12.267c-1.867,6.667-4.667,14.933-8,24.4-22.133,63.2-63.467,180.8,52.667,273.2,59.333,47.2,114.933,99.067,163.867,144.667,62.533,58.267,116.4,108.667,141.333,113.333,42.133,7.867,65.733-1.2,105.333-40.8,17.2-17.2,83.867-97.867,154.4-183.467,103.6-125.6,174.4-210.8,193.067-227.334-8-21.6-100.8-97.6-146.133-134.667-22.267-18.133-39.733-32.533-49.2-41.2-9.2-8.4-34.933-26.933-64.667-48.267-160.4-115.333-238.533-180.4-220-216.133,24-46.4,38.8-70.4,39.467-71.333a9.965,9.965,0,0,1,13.733-3.2,9.965,9.965,0,0,1,3.2,13.733c-.133.267-15.2,24.267-38.667,69.867-.8,1.6-6,17.333,65.467,78.133,44.8,38.133,102.267,79.467,148.533,112.667,31.6,22.667,56.533,40.533,66.533,49.867,9.067,8.267,27.2,23.2,48.267,40.4,105.067,86,154.934,130.8,154,152.667a14.834,14.834,0,0,1-6.534,11.867c-12.266,8.533-111.733,128.933-191.6,225.867-70.933,85.867-137.867,167.067-155.733,184.8C851.469,942.912,825.869,960.645,788,960.645Z" transform="translate(119.998 -9.979)" fill="#fff"/></g><g clip-path="url(#a)"><path d="M1299.667,808.792a10.161,10.161,0,0,1-7.6-3.467L1064.333,540.658,995.8,490.792l10.8-8.133c24-18.267,58.267-50.267,59.2-64.8.133-2.4.533-7.467.933-14.933,21.467-325.2,16.4-399.2,11.467-414.267a9.915,9.915,0,0,1,6.4-12.533,9.915,9.915,0,0,1,12.533,6.4c9.467,29.333,5.866,171.2-10.533,421.733-.533,7.333-.8,12.4-.933,14.8-1.333,23.2-37.067,55.333-56.533,71.2l48.934,35.467,229.2,266.4a10.092,10.092,0,0,1-1.067,14.133A9.62,9.62,0,0,1,1299.667,808.792Z" transform="translate(331.933 -8.125)" fill="#fff"/></g><g clip-path="url(#a)"><path d="M522.77,1255.246a9.712,9.712,0,0,1-8.8-5.333c-1.6-2.8-156-290.533-383.333-718.4l-.267-.667C54.236,357.113-15.1,241.913-75.764,188.179c-47.333-41.867-76.933-36-96.533-32a75.73,75.73,0,0,1-12.4,1.867,9.909,9.909,0,0,1-10.4-9.6,9.989,9.989,0,0,1,9.6-10.4c2.267-.133,5.6-.8,9.333-1.467,20.667-4.133,59.067-11.867,113.733,36.667C.37,228.713,71.3,346.179,148.636,522.446c227.2,427.733,381.6,715.2,383.067,718a9.979,9.979,0,0,1-4.133,13.6A10.246,10.246,0,0,1,522.77,1255.246Z" transform="translate(-65.036 44.487)" fill="#fff"/></g><g clip-path="url(#a)"><path d="M-161.4,1088.63a10.16,10.16,0,0,1-7.6-3.467,9.975,9.975,0,0,1,1.2-14.133L301.53,671.7a10.03,10.03,0,1,1,12.933,15.333L-154.87,1086.363A11.091,11.091,0,0,1-161.4,1088.63Z" transform="translate(-57.13 223.104)" fill="#fff"/></g><g clip-path="url(#a)"><path d="M158.9,1101.063a10.036,10.036,0,0,1-8.933-5.467L53.83,904.53l-216.533-256a9.975,9.975,0,0,1,1.2-14.133,9.975,9.975,0,0,1,14.133,1.2l218,257.867.533,1.067,96.667,192a10,10,0,0,1-4.4,13.467A11.254,11.254,0,0,1,158.9,1101.063Z" transform="translate(-55.03 210.67)" fill="#fff"/></g><g clip-path="url(#a)"><path d="M676.9,1279.849a16.387,16.387,0,0,1-12.534-6,16.081,16.081,0,0,1,2.533-22.534c61.733-49.2,295.2-247.2,316.267-268.267,33.867-33.867,211.333-228.933,237.2-338.133,28.133-118.533,53.6-455.067.133-649.333a16.04,16.04,0,0,1,11.2-19.733,16.04,16.04,0,0,1,19.733,11.2c54.934,199.333,28.934,544,.134,665.2-30.933,130.533-243.6,351.2-245.734,353.333-24.267,24.267-261.067,224.533-318.933,270.8A16.846,16.846,0,0,1,676.9,1279.849Z" transform="translate(220.296 -8.249)" fill="#fff"/></g><g clip-path="url(#a)"><path d="M724.2,1285.449a16.387,16.387,0,0,1-12.534-6,16.081,16.081,0,0,1,2.534-22.533c61.733-49.067,295.2-247.2,316.4-268.267,33.867-33.867,211.333-228.8,237.2-338.133,28.133-118.533,53.6-455.067.133-649.333a16.04,16.04,0,0,1,11.2-19.733,16.04,16.04,0,0,1,19.733,11.2c54.933,199.333,28.933,544,.133,665.2-30.934,130.533-243.6,351.2-245.733,353.333-24.267,24.267-261.067,224.533-318.933,270.8A16.37,16.37,0,0,1,724.2,1285.449Z" transform="translate(236.063 -6.382)" fill="#fff"/></g><g clip-path="url(#a)"><path d="M1320.09,774.69a9.919,9.919,0,0,1-7.734-3.6l-289.6-350.933-21.067-52a10.016,10.016,0,0,1,18.533-7.6l20,49.2L1327.69,758.423a9.841,9.841,0,0,1-7.6,16.266Z" transform="translate(333.644 118.11)" fill="#fff"/></g><g clip-path="url(#a)"><path d="M870.653,679.63a9.468,9.468,0,0,1-7.733-3.733c-.933-1.067-90.933-112.267-142.533-182.8-44.8-61.2-43.067-75.867-35.2-91.333a17.476,17.476,0,0,0,1.6-3.733c5.867-19.2,65.466-90.533,66-91.333A10.03,10.03,0,0,1,768.12,319.63c-26,30.8-59.467,75.333-62.267,84.267a41.519,41.519,0,0,1-2.933,6.8c-3.067,6.133-7.467,14.667,33.467,70.533,51.333,70.267,141.067,180.934,142,182.133A10.127,10.127,0,0,1,876.92,677.5,11.084,11.084,0,0,1,870.653,679.63Z" transform="translate(226.947 101.037)" fill="#fff"/></g><g clip-path="url(#a)"><g transform="translate(547.067 46.8)"><path d="M457.4,36.2l-46,32,32.933,47.067,47.2-32Z" transform="translate(-409.933 -34.733)" fill="#b3b3b3"/><path d="M444.567,117.1,410.3,68.3l47.733-33.2,35.2,48.667ZM413.1,68.833,444.967,114.3l45.467-30.933L457.5,37.9Z" transform="translate(-410.3 -35.1)" fill="#fff"/></g><g transform="translate(448.8 62.8)"><path d="M425.833,48.2,337.7,111.267l39.733,49.067,86.667-56Z" transform="translate(-336.233 -46.733)" fill="#b3b3b3"/><path d="M377.533,162.033,336.6,111.367,426.467,47.1,465.8,104.967Zm-38-50.133,38.4,47.6L463,104.3,425.933,49.9Z" transform="translate(-336.6 -47.1)" fill="#fff"/></g><g transform="translate(400.8 118.933)"><path d="M301.6,129.367l70.933,79.467,40.4-32.4L344.667,90.3Z" transform="translate(-300.267 -88.833)" fill="#b3b3b3"/><path d="M372.867,210.667,300.6,129.733,345.133,89.2,414.6,176.933ZM303.4,129.733,373,207.867l38.8-31.2L344.867,92.133Z" transform="translate(-300.6 -89.2)" fill="#fff"/></g><g transform="translate(471.6 205.2)"><path d="M505.867,268.633l-54.133,28L354.8,187.3l40.4-32.4Z" transform="translate(-353.333 -153.567)" fill="#b3b3b3"/><path d="M451.833,298.3,353.7,187.633,395.567,153.9,507.833,269.233Zm-95.2-110.533,95.733,108L504.633,268.7l-109.2-112.133Z" transform="translate(-353.7 -153.9)" fill="#fff"/></g><g transform="translate(377.333 161.6)"><path d="M310.8,122.4,284,150.133,389.733,289.467,431.867,258.4Z" transform="translate(-282.667 -120.8)" fill="#b3b3b3"/><path d="M389.8,291.2l-.533-.8L283,150.4l28.267-29.2.667.8L433.667,259.067ZM285.667,150.667,390.2,288.533,430.733,258.8l-119.6-134.533Z" transform="translate(-283 -121.2)" fill="#fff"/></g><g transform="translate(340.267 194.533)"><path d="M297.133,147.1,256.2,189.9,364.867,326.833l27.6-15.067L335.8,223.1l10.8-10.933Z" transform="translate(-254.867 -145.5)" fill="#b3b3b3"/><path d="M364.933,328.567l-.533-.667L255.2,190.3l42.4-44.4,50.667,66.8-10.8,10.933,56.8,88.933ZM257.867,190.433l107.6,135.6L391.333,311.9l-56.4-88.533L345.6,212.433l-48.133-63.467Z" transform="translate(-255.2 -145.9)" fill="#fff"/></g><g transform="translate(274 237.333)"><path d="M272.733,179.2,206.6,255.467l52.533,60.667L333.267,255.6Z" transform="translate(-205.133 -177.6)" fill="#b3b3b3"/><path d="M259.367,317.867l-53.867-62L272.967,178l62,78Zm-51.067-62,51.467,59.2,72.667-59.333-59.2-74.667Z" transform="translate(-205.5 -178)" fill="#fff"/></g><g transform="translate(236 313.733)"><path d="M216.133,236.4,178,279.467l88.133,94.267,31.6-26.533L259.2,305.067l9.467-8Z" transform="translate(-176.667 -234.933)" fill="#b3b3b3"/><path d="M266.467,375.433,177,279.967,216.467,235.3l54,62.267-9.467,8L299.533,347.7Zm-86.8-95.6,86.933,92.8,30-25.333-38.533-42.133,9.6-8-51.2-58.933Z" transform="translate(-177 -235.3)" fill="#fff"/></g><g transform="translate(200.933 356.8)"><path d="M186.767,268.7,151.7,307.767l81.2,76.267L265.833,353.1Z" transform="translate(-150.367 -267.233)" fill="#b3b3b3"/><path d="M233.233,385.733,150.7,308.267,187.1,267.6l80.4,85.867Zm-79.733-77.6,79.733,74.8L264.7,353.467l-77.6-82.933Z" transform="translate(-150.7 -267.6)" fill="#fff"/></g><g transform="translate(183.867 401.333)"><path d="M161.967,302.2l-23.067,32,55.2,50.133L215.033,354.6Z" transform="translate(-137.567 -300.6)" fill="#b3b3b3"/><path d="M194.567,386.2,137.9,334.733,162.033,301,216.7,354.867Zm-54-51.733,53.6,48.8,19.867-28.133L162.3,304.2Z" transform="translate(-137.9 -301)" fill="#fff"/></g><g transform="translate(230.133 468.8)"><path d="M182.567,367.467l-9.067,12,37.067,45.067-18.533,27.6,14.533,18.533,52-43.6-65.6-74.267Z" transform="translate(-172.3 -351.2)" fill="#b3b3b3"/><path d="M206.733,472.533l-15.6-19.867,18.533-27.6L172.6,380l9.467-12.667,11.2-15.733,67.067,76.133Zm-13.2-20L207,469.733l50.4-42.267-64-72.667-9.733,13.733-8.533,11.333L212.2,424.933Z" transform="translate(-172.6 -351.6)" fill="#fff"/></g><g transform="translate(158.267 458.533)"><path d="M140.867,345,119.8,382.067,162.333,408.2,183.4,376.6Z" transform="translate(-118.333 -343.533)" fill="#b3b3b3"/><path d="M162.967,409.9,118.7,382.834,140.833,343.9,185.1,376.7ZM121.5,382.167l40.933,25.067,20-30L141.5,346.967Z" transform="translate(-118.7 -343.9)" fill="#fff"/></g><g transform="translate(142.4 496.533)"><path d="M123.833,372.8,107.7,396.4,149.3,438l17.067-39.067" transform="translate(-106.5 -372.267)" fill="#b3b3b3"/><path d="M150,439.867l-43.2-43.2L123.333,372.4l1.6,1.067-15.6,22.933,40,40,16.4-37.733,1.867.8Z" transform="translate(-106.8 -372.4)" fill="#fff"/></g><g transform="translate(116.933 512.8)"><path d="M114.067,392.133,102.6,385.6l-14,21.067,67.067,113.2,25.067-15.6L126.2,425.733l8.533-13.067-20.667-18" transform="translate(-87.4 -384.267)" fill="#b3b3b3"/><path d="M155.7,521.533,87.7,407l14.933-22.4,12.267,6.933-.933,1.733-10.8-6L90.1,407l66.267,111.867L179.7,504.333l-54.4-78.267,8.4-12.933-19.867-17.467,1.2-1.467,21.2,18.667L127.7,425.933,182.5,505Z" transform="translate(-87.7 -384.6)" fill="#fff"/></g><g transform="translate(552.133 321.6)"><path d="M415.1,277.5l43.067,73.733,60.133-36.8-38-72.133Z" transform="translate(-413.767 -240.833)" fill="#b3b3b3"/><path d="M458.233,352.933,414.1,277.467,481.167,241.2,520.1,315.067Zm-41.467-74.667,42,71.867,58.4-35.867-37.067-70.4Z" transform="translate(-414.1 -241.2)" fill="#fff"/></g><g transform="translate(727.333 458.667)"><path d="M661.8,345l27.066,47.2L574.733,447.267,546.6,408.2Z" transform="translate(-545.133 -343.667)" fill="#b3b3b3"/><path d="M574.7,448.8l-29.2-40.667L662.567,344,690.7,393.067l-.934.4Zm-26.266-40,26.933,37.467L687.9,392.133l-26-45.467Z" transform="translate(-545.5 -344)" fill="#fff"/></g><g transform="translate(296 592.933)"><path d="M252.767,521.833l51.6-22L267.3,445.7l-44.4,32.533,9.6,21.6,9.6-4Z" transform="translate(-221.7 -444.367)" fill="#b3b3b3"/><path d="M252.533,523.5l-10.667-26-9.467,4L222,478.3l45.867-33.6,38.4,56Zm-9.6-28.667,10.667,26,49.6-21.2L267.333,447.5l-42.8,31.467,8.933,19.867Z" transform="translate(-222 -444.7)" fill="#fff"/></g><g transform="translate(283.467 580.133)"><path d="M255.833,435.9,213.7,467.5l12.267,14,44.4-32.533Z" transform="translate(-212.233 -434.833)" fill="#b3b3b3"/><path d="M226.2,483.233l-13.6-15.467L256.2,435.1l16,14.4ZM215.533,467.9l10.933,12.533L269.133,449.1l-13.067-11.6Z" transform="translate(-212.6 -435.1)" fill="#fff"/></g><g transform="translate(377.333 580)"><path d="M303.467,435.9,325.6,467.5l-28.133,11.867L284,448.967Z" transform="translate(-282.667 -434.7)" fill="#b3b3b3"/><path d="M297.267,481,283,449l21.067-14L327.4,468.333Zm-11.733-31.333,12.8,28.667,26-10.933-20.8-29.733Z" transform="translate(-283 -435)" fill="#fff"/></g><g transform="translate(408.4 625.467)"><path d="M333.833,470.1l12,17.6-33.067,12.933L307.3,486.5Z" transform="translate(-305.967 -468.767)" fill="#b3b3b3"/><path d="M312.433,502.167,306.3,486.3l28.133-17.2,13.333,19.333Zm-3.6-14.933,4.8,12.4L344.7,487.5l-10.8-15.734Z" transform="translate(-306.3 -469.1)" fill="#fff"/></g><g transform="translate(496.933 701.067)"><path d="M508.067,609.033,471.933,650.1,373.8,563.167l34-36.267Z" transform="translate(-372.333 -525.433)" fill="#b3b3b3"/><path d="M472.433,651.933l-.8-.667L372.7,563.533,408.167,525.8l.667.533,100.933,82.8Zm-96.8-88.533L472.3,649l34.667-39.6L408.3,528.467Z" transform="translate(-372.7 -525.8)" fill="#fff"/></g><g transform="translate(442 777.467)"><path d="M394.533,584l48.133,104.133L379.2,714.267l-46.8-107.2Z" transform="translate(-331.2 -582.8)" fill="#b3b3b3"/><path d="M378.967,715.9,331.5,606.833l64-23.733,48.933,106Zm-44.933-108L379.9,713.233,441.5,687.9,394.167,585.5Z" transform="translate(-331.5 -583.1)" fill="#fff"/></g><g transform="translate(389.867 828.267)"><path d="M357.667,622.3,293.4,652.433l15.067,40.133L293.4,701.5l18.533,40,80.267-40Z" transform="translate(-292.067 -620.833)" fill="#b3b3b3"/><path d="M311.733,743.333,292.4,701.467l15.2-9.067-15.2-40.266,66-30.933,35.333,81.067-.8.4Zm-16.8-41.067,17.733,38.267,78.533-39.2-33.733-77.467L294.933,653.2l15.2,40Z" transform="translate(-292.4 -621.2)" fill="#fff"/></g><g transform="translate(222 660.8)"><path d="M290.7,496.6l44.667,92.533L205.5,646.2l-38-74.8Z" transform="translate(-166.167 -495.267)" fill="#b3b3b3"/><path d="M205.433,647.867l-.4-.8-38.533-75.6.8-.533L291.433,495.6l45.6,94.4Zm-36.267-75.733,37.2,73.067,128-56.267L290.633,498.4Z" transform="translate(-166.5 -495.6)" fill="#fff"/></g><g transform="translate(260 737.467)"><path d="M196,627.033l35.867,64.133L300.8,663.033,291.733,648.1,375.2,605.967,344.4,554.1Z" transform="translate(-194.667 -552.767)" fill="#b3b3b3"/><path d="M231.8,692.7l-.4-.8L195,626.967,345.133,553.1,377,606.7l-.933.533-82.533,41.6L302.6,663.9Zm-34-64.933,34.933,62.4,66.933-27.334L290.733,647.9,374.2,605.767l-29.867-50.133Z" transform="translate(-195 -553.1)" fill="#fff"/></g><g transform="translate(295.867 846.533)"><path d="M222.9,663.933l44.4,105.2L335.433,737l-43.6-101.2Z" transform="translate(-221.567 -634.6)" fill="#b3b3b3"/><path d="M267.1,770.767,221.9,663.7l70.667-28.8.4.933,44,102.133-.933.4Zm-42.533-106,43.6,103.333,66.267-31.2-42.8-99.467Z" transform="translate(-221.9 -634.9)" fill="#fff"/></g><g transform="translate(340.267 923.734)"><path d="M256.2,749.833l15.467,40.133,120.8-54.133-20-42.133Z" transform="translate(-254.867 -692.5)" fill="#b3b3b3"/><path d="M271.467,791.6,255.2,749.733l118-56.933,20.933,43.867-.933.4Zm-13.733-40.933,14.8,38.267,118.8-53.2-19.067-40.4Z" transform="translate(-255.2 -692.8)" fill="#fff"/></g><g transform="translate(355.733 965.733)"><path d="M267.8,779.433,301.933,856.5,424.2,801.433,388.6,725.3Z" transform="translate(-266.467 -723.967)" fill="#b3b3b3"/><path d="M301.733,858.167,266.8,779.233l.933-.4,121.6-54.533,36.4,78-.933.4Zm-32.267-78,33.2,75.333,120.4-54.267L388.4,726.967Z" transform="translate(-266.8 -724.3)" fill="#fff"/></g><g transform="translate(476.533 893.467)"><path d="M358.4,743.333,504.667,671.2l41.6,78.133L394,819.466Z" transform="translate(-357.067 -669.733)" fill="#b3b3b3"/><path d="M393.8,821.167l-36.4-78,148-73.067,42.533,80-.933.4ZM360.067,744.1l34.8,74.4,150.4-69.333-40.667-76.4Z" transform="translate(-357.4 -670.1)" fill="#fff"/></g><g transform="translate(617.333 835.467)"><path d="M553.067,627.6,593.2,715.733,502,751.867l-38-85.2Z" transform="translate(-462.667 -626.267)" fill="#b3b3b3"/><path d="M501.8,753.4,463,666.467l.933-.4L554.067,626.6,595,716.6Zm-36.267-85.867,37.333,83.333L592.2,715.533l-39.2-86.4Z" transform="translate(-463 -626.6)" fill="#fff"/></g><g transform="translate(389.867 1067.067)"><path d="M293.4,831.2l29.067,66.133,93.2-49.067L400.6,819.2l-25.333,12-15.333-30Z" transform="translate(-292.067 -800)" fill="#b3b3b3"/><path d="M322.267,899.1l-29.867-68,68.4-30.8,15.333,30,25.2-12,16,30.8-.933.4Zm-27.2-67.067L323.333,896.3l91.333-48.133-14.133-27.333-25.2,12-15.467-30Z" transform="translate(-292.4 -800.3)" fill="#fff"/></g><g transform="translate(536.133 1076)"><path d="M403.1,820.967l28,85.2L470.7,895.1l-33.867-87.2Z" transform="translate(-401.767 -806.7)" fill="#b3b3b3"/><path d="M430.767,907.667,402.1,820.733,437.7,807l34.533,89.2ZM404.633,821.8,432.1,905.133,469.7,894.6l-33.067-85.333Z" transform="translate(-402.1 -807)" fill="#fff"/></g><g transform="translate(552.4 979.6)"><path d="M570.443,735.8S412.177,796.866,415.11,797.933C418.177,799,461.377,905.4,461.377,905.4L614.443,845l-15.067-22,62.133-21.067-21.067-49.067L580.31,769.933Z" transform="translate(-414.043 -734.333)" fill="#b3b3b3"/><path d="M461.1,907.1l-.4-.933c-16.8-41.2-42.667-103.467-45.867-107.067l-.533-.133v-.8c0-1.067,0-2,78.267-32.8C530.967,750.3,569.9,735.233,570.3,735.1l1.067-.4,10,34.133,60-17.067L663.234,802.7l-1.067.4-60.933,20.667,14.933,22-1.2.4ZM416.7,798.567c5.867,9.067,30.4,68.8,45.467,106l151.067-59.6-15.067-22,62.4-21.2L640.3,754.433,580.033,771.5l-10-34C511.5,760.033,425.233,793.9,416.7,798.567Z" transform="translate(-414.3 -734.7)" fill="#fff"/></g><g transform="translate(594.8 3.2)"><path d="M447.3,116.133l56.267,46,91.2-98.933-24-39.067L527.567,3.2,459.7,66.8l19.867,27.467Z" transform="translate(-445.7 -2.133)" fill="#b3b3b3"/><path d="M504.1,163.733l-58-47.333,32.4-22.133L458.767,66.933,527.833,2.4l44,21.333.133.267,24.4,39.733Zm-54.667-47.2,54.4,44.533,90.134-97.733L570.5,25.2,528.233,4.667,461.433,67.2l20,27.6Z" transform="translate(-446.1 -2.4)" fill="#fff"/></g><g transform="translate(556.133 142)"><path d="M449.167,107.5,517.3,203.1l-34,24.667-65.2-100.4Z" transform="translate(-416.767 -106.167)" fill="#b3b3b3"/><path d="M483.367,229.567,417.1,127.3l32.667-20.8,69.2,97.2ZM419.9,127.967l64,98.8L516.3,203.3l-67.066-94Z" transform="translate(-417.1 -106.5)" fill="#fff"/></g><g transform="translate(621.2 237.6)"><path d="M560.067,270.533,501,179.2l-34,24.667L527.533,284Z" transform="translate(-465.533 -177.867)" fill="#b3b3b3"/><path d="M527.633,285.667l-61.733-81.6L501.633,178.2l60.4,93.067Zm-58.933-81.2,59.6,78.667,30.8-12.8-57.866-89.467Z" transform="translate(-465.9 -178.2)" fill="#fff"/></g><g transform="translate(720.4 276)"><path d="M541.4,274.367l47.067,51.467L665.533,260.9l-51.067-52.8Z" transform="translate(-539.933 -206.633)" fill="#b3b3b3"/><path d="M588.7,327.533l-48.4-52.8L614.967,207,667.5,261.267Zm-45.6-52.667,45.733,49.867,75.6-63.6L614.7,209.8Z" transform="translate(-540.3 -207)" fill="#fff"/></g><g transform="translate(682 56.667)"><path d="M512.4,115.433,675.2,315.7l85.2-76.667L606.133,43.7l-24,20.667,118.133,143.6-25.067,16.4L551.067,73.567Z" transform="translate(-511.2 -42.1)" fill="#b3b3b3"/><path d="M675.5,317.567l-164-201.733,40-43.333L675.9,223.567l23.333-15.333L581.1,64.633,606.567,42.5l.667.8L762.167,239.433ZM514.033,115.833l161.6,198.8L759.367,239.3,606.3,45.433,583.9,64.9,702.167,208.633,675.5,226.1,551.367,75.433Z" transform="translate(-511.5 -42.5)" fill="#fff"/></g><g transform="translate(838.667 356.933)"><path d="M661.067,268.7,630,294.3l63.2,86.533,33.066-26.4Z" transform="translate(-628.667 -267.367)" fill="#b3b3b3"/><path d="M693.267,382.5l-.666-.8L629,294.5l32.533-26.8,66.4,87.333ZM631.8,294.767l62,84.8L725.267,354.5,661.4,270.367Z" transform="translate(-629 -267.7)" fill="#fff"/></g><g transform="translate(901.733 276.133)"><path d="M795.667,266.9l-53.2,58.933L677.4,253.7l46-45.6Z" transform="translate(-675.933 -206.767)" fill="#b3b3b3"/><path d="M742.833,327.633l-66.533-73.6L723.767,207.1l.667.533L797.367,267.1Zm-63.734-73.6,63.734,70.533,51.6-57.2-70.667-57.6Z" transform="translate(-676.3 -207.1)" fill="#fff"/></g><g transform="translate(968 204.933)"><path d="M767,154.9l-40,53.067,52.133,63.467L834.2,211.967Z" transform="translate(-725.667 -153.3)" fill="#b3b3b3"/><path d="M779.333,273.3,726,208.367l.534-.667,40.667-54L836,212.233l-.667.8Zm-50.8-64.933,50.933,61.867,53.6-57.867-65.467-55.6Z" transform="translate(-726 -153.7)" fill="#fff"/></g><g transform="translate(1041.067 284.667)"><path d="M831.933,214.5,781.8,264.767,837,323.7l55.067-58.933Z" transform="translate(-780.467 -213.167)" fill="#b3b3b3"/><path d="M837.333,325.5,780.8,265.1l.667-.667,50.8-50.933,61.6,51.6ZM783.6,265.1l53.734,57.333,53.6-57.333-58.667-49.067Z" transform="translate(-780.8 -213.5)" fill="#fff"/></g><g transform="translate(1096.133 334.8)"><path d="M1020.533,398.467l-51.067,53.6L823.2,311.133,878.267,252.2Z" transform="translate(-821.733 -250.733)" fill="#b3b3b3"/><path d="M969.833,453.9l-.667-.667L822.1,311.5l56.533-60.4.8.8,142.933,146.933ZM824.9,311.367l144.8,139.6,49.733-52.133-140.8-144.8Z" transform="translate(-822.1 -251.1)" fill="#fff"/></g><g transform="translate(992.933 376.133)"><path d="M832.467,283.1,745.8,379.233,780.867,416.7l94-90.933Z" transform="translate(-744.333 -281.767)" fill="#b3b3b3"/><path d="M781.1,418.5l-36.4-38.933.667-.667L832.7,282.1l43.867,44.133-.667.667Zm-33.6-38.933L781.233,415.7l92.533-89.6-40.933-41.2Z" transform="translate(-744.7 -282.1)" fill="#fff"/></g><g transform="translate(916.8 472.267)"><path d="M880.933,494.4,812.8,552l-124-147.2,76-49.6Z" transform="translate(-687.2 -353.867)" fill="#b3b3b3"/><path d="M813.067,553.8,687.6,404.867,765.333,354.2,882.8,494.867l-.8.667Zm-122.4-148.533,122.8,145.6L880.133,494.6,765.067,356.733Z" transform="translate(-687.6 -354.2)" fill="#fff"/></g><g transform="translate(984 744.4)"><path d="M1058.6,559.2,946.2,673.467l-63.867-57.2-43.067,57.2,71.067,65.067-59.067,70.133L776.6,748.533,739,802.667,837.134,890.8l271.6-290.533Z" transform="translate(-737.667 -558)" fill="#b3b3b3"/><path d="M837.6,892.433l-.667-.667L738,803.1l38.667-55.733L851.333,807.5,909.2,738.833,838.134,673.9l.533-.667,43.733-58,.8.667,63.2,56.533L1058.8,558.3l51.6,42.4Zm-96.933-89.6,96.8,86.933L1107.6,600.7l-48.533-39.867L946.533,675.1l-.667-.666-63.067-56.4L840.933,673.5l71.2,65.2-.667.8-59.733,70.8-74.533-60Z" transform="translate(-738 -558.3)" fill="#fff"/></g><g transform="translate(881.734 1064.534)"><path d="M741.5,799.4l-79.2,70.533L710.433,923l76.4-79.2Z" transform="translate(-660.967 -798.067)" fill="#b3b3b3"/><path d="M710.767,924.8,661.3,870.133l.8-.667L741.967,798.4l46.8,45.733ZM664.1,870.267l46.667,51.6L785.7,844.133l-44-43.067Z" transform="translate(-661.3 -798.4)" fill="#fff"/></g><g transform="translate(825.6 1188)"><path d="M681.367,892.1,620.3,939.167l12.933,19.067,69.2-42.133Z" transform="translate(-618.833 -890.633)" fill="#b3b3b3"/><path d="M633.333,959.933,619.2,939.267,681.867,891l22.4,25.6-1.067.667ZM622,939.8l12,17.467,67.333-40.933L681.6,893.8Z" transform="translate(-619.2 -891)" fill="#fff"/></g><g transform="translate(736.4 1205.067)"><path d="M588.467,904.9l11.067,34-25.066,22.533L553.4,920.9Z" transform="translate(-551.933 -903.433)" fill="#b3b3b3"/><path d="M574.433,963.4,552.3,920.733,589.367,903.8l11.6,35.733ZM555.1,921.8l20,38.533,23.6-21.2-10.533-32.4Z" transform="translate(-552.3 -903.8)" fill="#fff"/></g><g transform="translate(556.133 1167.067)"><path d="M560.367,876.3l-62.133,26.133,5.6,12-85.733,42,28.133,58.133,166.266-43.6Z" transform="translate(-416.767 -874.967)" fill="#b3b3b3"/><path d="M445.9,1016.1l-28.8-59.734,85.733-42.133-5.6-12.133L561.1,875.3l53.2,96.667-1.2.266Zm-26.133-58.8,27.2,56.534,164.267-43.067-51.067-92.8-60.4,25.333,5.467,12Z" transform="translate(-417.1 -875.3)" fill="#fff"/></g><g transform="translate(-91.067 -34.933)"><path d="M283.8-13.5,195.4,233.033-67.4,184.9l16.133-62,40,6L-2.2,56.767-28.2-25.5Z" transform="translate(68.6 26.433)" fill="#b3b3b3"/><path d="M196.367,234.467-68.3,186.067l16.533-64,40,6,8.8-70.933L-29.367-26.2,285.567-14.067Zm-262.133-50L195.167,232.2l87.6-244.4L-26.567-24.067-.833,57l-9.2,73.333-40.267-6Z" transform="translate(68.3 26.2)" fill="#fff"/></g><g transform="translate(-122 86.8)"><path d="M-59.667,163.533-90.6,157.667-75.133,65.8H-36.6Z" transform="translate(91.8 -64.867)" fill="#b3b3b3"/><path d="M-58.567,164.967-91.5,158.833-75.633,65.1h40.667ZM-89.233,157.1l29.2,5.467L-37.5,67.1H-74.033Z" transform="translate(91.5 -65.1)" fill="#fff"/></g><g transform="translate(-154 82.667)"><path d="M-114.7,155.467l32.133,9.067L-67.1,66.8l-36.533-4Z" transform="translate(115.767 -61.733)" fill="#b3b3b3"/><path d="M-81.5,166.133l-34-9.6L-104.3,62l38.667,4.267Zm-31.867-11.067,30.133,8.533,15.2-95.6-34.533-3.867Z" transform="translate(115.5 -62)" fill="#fff"/></g><g transform="translate(-197.067 75.067)"><path d="M-135,57.2l-12,93.2,43.067,6.933,11.067-92.667Z" transform="translate(148.067 -56)" fill="#b3b3b3"/><path d="M-102.733,158.833-147.8,151.5l12.267-95.2,44,7.867Zm-42.933-8.933,41.067,6.667,10.8-90.8L-133.933,58.7Z" transform="translate(147.8 -56.3)" fill="#fff"/></g><g transform="translate(-239.2 68.133)"><path d="M-178.6,140.167l42.133,12,12-93.2L-164.6,51.9Z" transform="translate(179.667 -50.833)" fill="#b3b3b3"/><path d="M-135.4,153.633l-44-12.533,14.267-90,42,7.333-.133.933Zm-41.733-14L-137,151.1l11.733-91.067L-163.4,53.367Z" transform="translate(179.4 -51.1)" fill="#fff"/></g></g><g clip-path="url(#a)"><path d="M141.967,492.233,129.7,501.3l50.4,74.133,103.733-61.2-10.667-26-57.067,24-28-43.733Z" transform="translate(43.233 156.167)" fill="#b3b3b3"/><path d="M180.167,577.1l-.533-.8L128.7,501.367l13.2-9.733L188.833,467.5l28,43.867,57.2-24.133,11.333,27.733-.8.4ZM131.5,501.767,180.833,574.3l102.133-60.267-10-24.267-56.933,24-28-43.733-45.2,23.333Z" transform="translate(42.9 155.833)" fill="#fff"/></g><g clip-path="url(#a)"><path d="M411.4,408.267,487,520.533,600.733,440.4l-81.2-144L451.4,338.533,467.933,365.2Z" transform="translate(137.133 98.8)" fill="#8c3d17"/><path d="M487.067,522.867,410,408.467,466.667,365.4,450,338.6,520.4,295l.667,1.2L602.8,441.267ZM413.6,409.133l74.133,110,111.6-78.667L519.467,298.733l-65.867,40.8,16.533,26.533Z" transform="translate(136.667 98.333)" fill="#fff"/></g><g clip-path="url(#a)"><path d="M484.417,409.7l-15.333-7.333-.133-.133-2.934,1.333c-1.867.933-1.867,2.4,0,3.333l3.333,1.6,5.467,2.533L465.75,415.3c-1.867.933-1.867,2.4,0,3.333l3.2,1.6,15.467-7.333C486.417,412.1,486.417,410.633,484.417,409.7Zm24.533-11.067a9.443,9.443,0,0,0-3.467-.667,7.6,7.6,0,0,0-1.733.133l-3.867,7.6,12-5.733Zm-34.933,1.333,12,5.733-3.867-7.867c-.4,0-.8-.133-1.333-.133a9.442,9.442,0,0,0-3.467.667Zm46.133,15.6-9.067-4.267,8.8-4.133c1.867-.933,1.867-2.4,0-3.333L516.95,402.5l-15.467,7.333c-1.867.933-1.867,2.4,0,3.333L516.95,420.5l3.2-1.6C522.15,417.967,522.15,416.5,520.15,415.567Zm-30.667-.133-15.467,7.333,3.2,1.6a8.935,8.935,0,0,0,6.933,0l9.067-4.267,8.8,4.133a8.935,8.935,0,0,0,6.933,0l2.933-1.333-15.467-7.333A8.391,8.391,0,0,0,489.483,415.433Z" transform="translate(154.783 132.567)" fill="#fff"/><g transform="translate(619.6 451.6)"><path d="M520.833,366.833c0,16-12.267,28.4-28,28.4-15.867,0-28.133-12.267-28.133-28.4a28.067,28.067,0,1,1,56.133,0Zm-8.533,0c0-11.333-8.534-20.267-19.333-20.267s-19.6,8.933-19.6,20.267c0,11.467,8.667,20.4,19.6,20.4C503.633,387.233,512.3,378.3,512.3,366.833Z" transform="translate(-464.7 -338.7)" fill="#fff"/><path d="M507.433,381.9h0a38.485,38.485,0,0,1-17.333,4,37.528,37.528,0,0,1-17.2-4h-.4l9.067,18.133.267.4.4.8.667,1.2,1.333,2.533,4,8.133.4.8a1.838,1.838,0,0,0,3.2,0l.4-.8,3.867-7.733,1.333-2.533,1.2-2.533,9.067-18C507.7,382.033,507.567,381.9,507.433,381.9Z" transform="translate(-462.1 -324.3)" fill="#fff"/></g></g><g clip-path="url(#a)"><path d="M491.5,477.133V458.6h7.2V477c0,5.867,2.4,8.667,7.333,8.667s7.333-2.8,7.333-8.667V458.6h7.2v18.533c0,9.6-4.667,15.333-14.533,15.333C496.033,492.6,491.5,486.867,491.5,477.133Z" transform="translate(163.833 152.867)" fill="#8c3d17"/><path d="M525.267,478.533V490H518.2V477.733c0-7.2,4.267-12.933,12.8-12.933s12.933,5.733,12.933,12.933V490h-7.067V478.533c0-3.733-1.867-6.933-5.867-6.933S525.267,474.8,525.267,478.533Z" transform="translate(172.733 154.933)" fill="#8c3d17"/><path d="M541.1,485.067l5.2-2.933c1.067,2,2.667,2.8,5.2,2.8,2.267,0,3.733-.933,3.733-2.267,0-4-13.467-.533-13.467-10,0-4.4,3.867-7.867,9.867-7.867,5.2,0,8.4,2.533,9.867,5.333l-5.2,2.933a4.778,4.778,0,0,0-4.533-2.667c-1.733,0-3.067.8-3.067,2.133,0,4,13.467.8,13.467,10,0,4.933-4.8,8.133-10.4,8.133C546.7,490.667,543.1,488.8,541.1,485.067Z" transform="translate(180.367 154.933)" fill="#8c3d17"/><path d="M559.7,477.533A12.584,12.584,0,0,1,572.5,464.6c7.733,0,12.267,5.733,12.267,12.4v2.133H566.5a6.281,6.281,0,0,0,6.533,5.467,6.415,6.415,0,0,0,6-3.6l5.466,2.667c-2.133,4.4-6.133,6.933-11.467,6.933C565.433,490.733,559.7,485.4,559.7,477.533Zm18-2.4a5.041,5.041,0,0,0-5.333-4.4,5.534,5.534,0,0,0-5.6,4.4Z" transform="translate(186.567 154.867)" fill="#8c3d17"/><path d="M582.3,490V475.867c0-6.267,3.6-11.067,10.8-11.067a11.962,11.962,0,0,1,4.533.8v6.8a8.456,8.456,0,0,0-3.867-1.067c-2.8,0-4.4,1.733-4.4,4.667v13.867H582.3Z" transform="translate(194.1 154.933)" fill="#8c3d17"/><path d="M595.5,477.533A12.584,12.584,0,0,1,608.3,464.6c7.733,0,12.267,5.733,12.267,12.4v2.133H602.3a6.282,6.282,0,0,0,6.534,5.467,6.415,6.415,0,0,0,6-3.6l5.467,2.667c-2.133,4.4-6.133,6.933-11.467,6.933C601.233,490.733,595.5,485.4,595.5,477.533Zm18-2.4a5.042,5.042,0,0,0-5.333-4.4,5.534,5.534,0,0,0-5.6,4.4Z" transform="translate(198.5 154.867)" fill="#8c3d17"/><path d="M492.1,536.633V503.3h11.733c9.467,0,15.2,4.4,15.2,12.133,0,8-5.733,12.4-14.933,12.4h-4.933v8.8Zm7.2-26.667v11.2h4.667c4.8,0,7.6-1.867,7.6-5.733,0-3.733-2.933-5.467-7.6-5.467H499.3Z" transform="translate(164.033 167.767)" fill="#8c3d17"/><path d="M515.6,534.6V520.467c0-6.267,3.6-11.066,10.8-11.066a11.957,11.957,0,0,1,4.533.8V517a8.459,8.459,0,0,0-3.867-1.067c-2.8,0-4.4,1.733-4.4,4.667v13.867H515.6Z" transform="translate(171.867 169.8)" fill="#8c3d17"/><path d="M528.9,522.233A13.038,13.038,0,0,1,542.233,509.3c7.733,0,13.333,5.6,13.333,12.933v12.4H548.9V531.7a9.669,9.669,0,0,1-7.733,3.467C533.833,535.3,528.9,529.433,528.9,522.233Zm19.467.133a6.268,6.268,0,1,0-6.267,6.4A6.372,6.372,0,0,0,548.367,522.367Z" transform="translate(176.3 169.767)" fill="#8c3d17"/><path d="M552.3,534.433l5.733-9.333a5.272,5.272,0,0,0,1.067-2.933,4.945,4.945,0,0,0-.933-2.667l-5.867-9.6h7.867l4.133,6.933a6.123,6.123,0,0,1,.934,2.133h2a6.12,6.12,0,0,1,.934-2.133L572.3,509.9h7.867l-5.867,9.6a4.946,4.946,0,0,0-.933,2.667,6.584,6.584,0,0,0,1.067,2.933l5.734,9.333H572.3l-4.267-6.8a18.877,18.877,0,0,1-1.067-2.4h-1.733a13.1,13.1,0,0,1-1.067,2.4l-4.267,6.8Z" transform="translate(184.1 169.967)" fill="#8c3d17"/><path d="M576.9,505a4.439,4.439,0,0,1,4.4-4.4,4.4,4.4,0,0,1,0,8.8A4.439,4.439,0,0,1,576.9,505Zm7.867,8v24.533H577.7V513Z" transform="translate(192.3 166.867)" fill="#8c3d17"/><path d="M587.2,529.767l5.2-2.933c1.067,2,2.667,2.8,5.2,2.8,2.267,0,3.733-.933,3.733-2.267,0-4-13.467-.533-13.467-10,0-4.4,3.867-7.867,9.867-7.867,5.2,0,8.4,2.533,9.867,5.333l-5.2,2.933a4.778,4.778,0,0,0-4.533-2.667c-1.733,0-3.067.8-3.067,2.133,0,4,13.467.8,13.467,10,0,4.933-4.8,8.134-10.4,8.134C592.8,535.233,589.2,533.367,587.2,529.767Z" transform="translate(195.733 169.833)" fill="#8c3d17"/></g><g clip-path="url(#a)"><g transform="translate(407.291 128.171)"><rect width="4" height="8" transform="matrix(0.74, -0.672, 0.672, 0.74, 0, 2.69)" fill="#3d3d3b"/></g><g transform="translate(423.067 145.6)"><path d="M473.567,283.867l-10.4-11.467,2.933-2.667L476.5,281.2Zm-20.933-22.933-10.4-11.467,2.933-2.667,10.4,11.467ZM431.833,238l-10.4-11.467,2.933-2.667,10.4,11.467Zm-20.8-22.933-10.4-11.467,2.933-2.667,10.4,11.467Zm-20.8-22.933-10.4-11.467L382.767,178l10.4,11.467ZM369.3,169.2l-10.4-11.467,2.933-2.667,10.4,11.467Zm-20.8-22.933L338.1,134.8l2.933-2.667,10.4,11.467Zm-20.8-22.933-10.4-11.467,2.933-2.667,10.4,11.467Z" transform="translate(-317.3 -109.2)" fill="#3d3d3b"/></g><g transform="translate(589.709 328.992)"><rect width="4" height="8" transform="matrix(0.74, -0.672, 0.672, 0.74, 0, 2.69)" fill="#3d3d3b"/></g></g><g clip-path="url(#a)"><path d="M174.9,234.167l-5.467-.8-3.2,5.6,3.467,4.267-.933,1.6-10.667-13.6.8-1.333,17.2,2.667Zm-7.2-1.2-5.2-.933c-.667-.133-1.467-.267-2.4-.533a20.518,20.518,0,0,1,1.6,1.733l3.333,4.133Z" transform="translate(52.7 76.633)"/><path d="M178.967,226.792l-6.8-4a3.016,3.016,0,0,0-2.267-.533,2.968,2.968,0,0,0-1.733,1.467,3.463,3.463,0,0,0-.533,2.933,5.052,5.052,0,0,0,2.533,2.533l5.467,3.2-.933,1.6-10.4-6.133.8-1.333,1.6.533v-.133a5.35,5.35,0,0,1-.4-2,4.029,4.029,0,0,1,.667-2.133,5,5,0,0,1,2.533-2.267,4.55,4.55,0,0,1,3.467.8l6.8,4Z" transform="translate(54.767 73.475)"/><path d="M174.358,210.6l1.067.533-.933,2h1.2a5.576,5.576,0,0,1,1.333.533,3.616,3.616,0,0,1,1.867,2.533,5.081,5.081,0,0,1-.8,3.467c-.133.267-.4.533-.533.8,0,.933.267,1.467.8,1.733a.85.85,0,0,0,.8,0,3.966,3.966,0,0,0,.933-1.067l1.067-1.867a4.866,4.866,0,0,1,2.267-2.133,3.2,3.2,0,0,1,2.667.267,3.44,3.44,0,0,1,1.867,2.933,8.552,8.552,0,0,1-1.467,4.533,5.7,5.7,0,0,1-2.667,2.667,2.984,2.984,0,0,1-2.8-.133,3.114,3.114,0,0,1-1.333-1.6,3.306,3.306,0,0,1,0-2.267,6.505,6.505,0,0,1-.933.4,1.6,1.6,0,0,1-1.067-.267,1.792,1.792,0,0,1-.8-.933,4.115,4.115,0,0,1-.267-1.467,3.186,3.186,0,0,1-1.867.667,3.913,3.913,0,0,1-2.133-.533,3.385,3.385,0,0,1-2-2.533,4.448,4.448,0,0,1,.8-3.467,3.631,3.631,0,0,1,1.067-1.333Zm-1.067,9.467a2.746,2.746,0,0,0,2,.4,2.594,2.594,0,0,0,1.6-1.333c.933-1.6.667-2.8-.933-3.6a2.449,2.449,0,0,0-3.733.933,2.984,2.984,0,0,0-.4,2A3.315,3.315,0,0,0,173.292,220.067Zm8.267,6a1.623,1.623,0,0,0,1.733,0,5.118,5.118,0,0,0,1.6-1.733A5.364,5.364,0,0,0,185.958,221a2.128,2.128,0,0,0-1.067-1.867,1.48,1.48,0,0,0-1.467-.133,5.092,5.092,0,0,0-1.467,1.733l-1.067,1.867a3.762,3.762,0,0,0-.533,2A3.26,3.26,0,0,0,181.558,226.067Z" transform="translate(56.842 70.2)"/><path d="M187.178,212.492a5.264,5.264,0,0,1-3.6,2.8,6.112,6.112,0,0,1-4.667-.933,6.663,6.663,0,0,1-3.333-3.6,4.21,4.21,0,0,1,.533-4.133,4.536,4.536,0,0,1,3.067-2.4,5.492,5.492,0,0,1,4,.8l.933.533-4.267,7.2a4.586,4.586,0,0,0,3.333.667,4.007,4.007,0,0,0,2.4-1.867,8.806,8.806,0,0,0,1.2-3.733l1.467.8c-.133.667-.267,1.333-.4,1.867A3.967,3.967,0,0,1,187.178,212.492Zm-9.733-5.067a2.856,2.856,0,0,0-.4,2.533,4.534,4.534,0,0,0,1.733,2.267l3.2-5.467a4.19,4.19,0,0,0-2.667-.667C178.511,206.092,177.978,206.492,177.445,207.425Z" transform="translate(58.422 68.042)"/><path d="M181.767,197.5l.8-1.2,1.333,1.067a2.8,2.8,0,0,0-.8,1.067,3.356,3.356,0,0,0-.267,2.8,4.879,4.879,0,0,0,2,2.4l5.6,3.333-.933,1.6-10.4-6.133.8-1.333,2,.933V201.9a9.3,9.3,0,0,1-.8-2.267A4.03,4.03,0,0,1,181.767,197.5Z" transform="translate(59.7 65.433)"/></g><g clip-path="url(#a)"><path d="M127.667,129.133l-1.2,3.867-8-2.533L116.2,137.8l8,2.533L123,144.2l-18.4-5.733,1.2-3.867,7.2,2.267,2.267-7.333-7.2-2.267,1.2-3.867Z" transform="translate(34.867 41.133)" fill="#3d3d3b"/><path d="M128.99,119.147l-2.133.133v.133a5.764,5.764,0,0,1,1.067,2.533,5.489,5.489,0,0,1-.4,2.8,4.7,4.7,0,0,1-2.133,2.8,4.756,4.756,0,0,1-3.6.133,3.868,3.868,0,0,1-2.8-2.533,9.662,9.662,0,0,1,.267-5.067l.667-2.533-.667-.133a2.016,2.016,0,0,0-2.8,1.6,10.6,10.6,0,0,0-.267,4.267l-2.933.533a10.545,10.545,0,0,1,.4-5.733,7.442,7.442,0,0,1,2.533-4,4.683,4.683,0,0,1,4.267-.4l9.467,2.933Zm-6.933-.933-.4,1.467a4.667,4.667,0,0,0-.133,2.667,2.119,2.119,0,0,0,1.467,1.333c1.067.4,1.867-.133,2.267-1.333a2.945,2.945,0,0,0-.133-2.4,3.153,3.153,0,0,0-1.733-1.467Z" transform="translate(37.677 37.787)" fill="#3d3d3b"/><path d="M133.133,107h-2v.133a4.334,4.334,0,0,1,.933,2.267,6.9,6.9,0,0,1-.267,2.8,5.159,5.159,0,0,1-2.533,3.333,6.527,6.527,0,0,1-4.267.133l-9.2-2.8L117,109l8.267,2.533a3.812,3.812,0,0,0,2.4.133A2.119,2.119,0,0,0,129,110.2a2.376,2.376,0,0,0-.4-2.667,7.538,7.538,0,0,0-3.333-1.867l-6.667-2,1.2-3.867,14.133,4.4Z" transform="translate(38.6 33.267)" fill="#3d3d3b"/><path d="M136.567,96.249a4.82,4.82,0,0,1-3.067,3.333v.267a15.5,15.5,0,0,0,2.133.4l5.733,1.733-1.2,3.867L119.9,99.582l.933-3.067h2v-.133a4.54,4.54,0,0,1-.8-4.667,5,5,0,0,1,3.2-3.333,9.543,9.543,0,0,1,5.733.267,12.214,12.214,0,0,1,3.733,1.867,7.389,7.389,0,0,1,2,2.667A4.873,4.873,0,0,1,136.567,96.249Zm-11.867-2.4a2.506,2.506,0,0,0,.267,2.4,4.571,4.571,0,0,0,2.667,1.6l.4.133a6.869,6.869,0,0,0,3.467.4,2.339,2.339,0,0,0,1.6-1.867c.533-1.733-.667-3.067-3.467-3.867a6.011,6.011,0,0,0-3.333-.267A1.8,1.8,0,0,0,124.7,93.849Z" transform="translate(39.967 29.351)" fill="#3d3d3b"/><path d="M137.433,84a7.018,7.018,0,0,0,.267-2.533l2.8.933a9.418,9.418,0,0,1-.4,3.733,4.713,4.713,0,0,1-2.267,3.067,6.28,6.28,0,0,1-3.867,0l-6.8-2.133-.533,1.867-1.6-.533-.667-2.533-2.667-2,.8-2.4,3.067.933,1.2-4,2.933.933-1.2,4,6.8,2.133a1.529,1.529,0,0,0,1.333-.133A4.993,4.993,0,0,0,137.433,84Z" transform="translate(40.567 26.133)" fill="#3d3d3b"/><path d="M143.1,75.549a4.819,4.819,0,0,1-3.067,3.333v.267a15.5,15.5,0,0,0,2.133.4l5.733,1.733-1.2,3.867-20.4-6.267.933-3.067h2v-.133a4.54,4.54,0,0,1-.8-4.667,5,5,0,0,1,3.2-3.333,9.542,9.542,0,0,1,5.733.267,9.824,9.824,0,0,1,3.733,1.867,7.389,7.389,0,0,1,2,2.667A5.972,5.972,0,0,1,143.1,75.549Zm-12-2.4a2.506,2.506,0,0,0,.267,2.4,4.571,4.571,0,0,0,2.667,1.6l.4.133a6.87,6.87,0,0,0,3.467.4,2.339,2.339,0,0,0,1.6-1.867c.533-1.733-.667-3.067-3.467-3.867a6.01,6.01,0,0,0-3.333-.267A1.8,1.8,0,0,0,131.1,73.149Z" transform="translate(42.1 22.451)" fill="#3d3d3b"/><path d="M140.771,55.833a7.858,7.858,0,0,1,4.8,3.467,6.718,6.718,0,0,1,.4,5.6,7.719,7.719,0,0,1-2,3.333,7.087,7.087,0,0,1-3.333,1.6,7.474,7.474,0,0,1-4.133-.4,7.858,7.858,0,0,1-4.8-3.467,6.979,6.979,0,0,1-.4-5.733,7.719,7.719,0,0,1,2-3.333,7.087,7.087,0,0,1,3.333-1.6A15.305,15.305,0,0,1,140.771,55.833ZM137.838,65.7a6.01,6.01,0,0,0,3.333.267,2.923,2.923,0,0,0,1.333-4.4,8.026,8.026,0,0,0-6.267-1.867,2.717,2.717,0,0,0-1.733,1.867,2.4,2.4,0,0,0,.4,2.533A8.135,8.135,0,0,0,137.838,65.7Z" transform="translate(43.629 18.433)" fill="#3d3d3b"/><path d="M146.591,47.3a3.868,3.868,0,0,1,2.8,2.533,7.611,7.611,0,0,1-.267,4.8,9.04,9.04,0,0,1-1.067,2.533c-.4.667-.8,1.333-1.2,1.867l-3.2-.933c.533-.667,1.067-1.333,1.6-2.133a11.318,11.318,0,0,0,1.067-2.267c.4-1.333.267-2.267-.533-2.533a.85.85,0,0,0-.8,0,4.255,4.255,0,0,0-.933.8c-.4.4-.8.933-1.467,1.6a13.862,13.862,0,0,1-2,2,2.808,2.808,0,0,1-1.733.667,3.774,3.774,0,0,1-2-.267,3.362,3.362,0,0,1-2.4-2.4,7.3,7.3,0,0,1,.267-4.4,13.671,13.671,0,0,1,2.667-4.667l2.4,2c-.533.667-.933,1.2-1.333,1.733a11.019,11.019,0,0,0-.933,1.733q-.6,1.8.4,2a1.107,1.107,0,0,0,1.067-.267,14.946,14.946,0,0,0,1.867-2,13.859,13.859,0,0,1,2-2,2.808,2.808,0,0,1,1.733-.667A10.291,10.291,0,0,1,146.591,47.3Z" transform="translate(44.742 14.833)" fill="#3d3d3b"/><path d="M150.5,41.733a7.019,7.019,0,0,0,.267-2.533l2.933.8a9.419,9.419,0,0,1-.4,3.733,4.713,4.713,0,0,1-2.267,3.067,6.28,6.28,0,0,1-3.867,0l-6.8-2.133-.533,1.867-1.6-.533-.667-2.533-2.667-2,.8-2.4,3.067.933,1.2-4,2.933.933-1.2,4,6.8,2.133a1.529,1.529,0,0,0,1.333-.133A5.4,5.4,0,0,0,150.5,41.733Z" transform="translate(44.967 12)" fill="#3d3d3b"/></g><g clip-path="url(#a)"><path d="M-27.667,503.7-33,502.233l-3.867,5.067,2.8,4.667-1.2,1.467L-44.2,498.5l.933-1.2,16.667,4.8Zm-6.933-2.133-5.067-1.6a9.29,9.29,0,0,1-2.267-.8c.4.533.933,1.2,1.467,2l2.8,4.533Z" transform="translate(-14.733 165.767)"/><path d="M-22.667,496.806l-6.133-4.8a3.066,3.066,0,0,0-2.133-.8,2.7,2.7,0,0,0-1.867,1.2,3.71,3.71,0,0,0-.933,2.8,4.94,4.94,0,0,0,2.133,2.8l5.067,3.867L-27.6,503.34l-9.6-7.333.933-1.2,1.467.8v-.133a3.808,3.808,0,0,1-.133-2.133A6.125,6.125,0,0,1-34,491.206a4.632,4.632,0,0,1,2.8-2,4.5,4.5,0,0,1,3.333,1.2l6.267,4.8Z" transform="translate(-12.4 163.06)"/><path d="M-25.16,480.2l.933.667-1.2,1.867a4.6,4.6,0,0,1,1.2.133,5.411,5.411,0,0,1,1.2.667A3.243,3.243,0,0,1-21.56,486.2a5.137,5.137,0,0,1-1.2,3.333c-.267.267-.4.533-.667.8-.133.933,0,1.467.533,1.867a.882.882,0,0,0,.8.133,3.067,3.067,0,0,0,1.067-.933l1.333-1.733A4.668,4.668,0,0,1-17.16,487.8a2.693,2.693,0,0,1,2.533.667,3.392,3.392,0,0,1,1.467,3.2,9.672,9.672,0,0,1-2,4.4,7.773,7.773,0,0,1-2.933,2.4,2.775,2.775,0,0,1-2.8-.533A2.963,2.963,0,0,1-21.96,496.2a3.594,3.594,0,0,1,.4-2.267,2.47,2.47,0,0,1-.933.267,1.773,1.773,0,0,1-1.067-.4,1.543,1.543,0,0,1-.667-.933,5,5,0,0,1-.133-1.467,2.511,2.511,0,0,1-2,.4,3.754,3.754,0,0,1-2-.8,4.033,4.033,0,0,1-1.733-2.8,4.5,4.5,0,0,1,1.2-3.333,5.091,5.091,0,0,1,1.2-1.2Zm-2.133,9.2a3.012,3.012,0,0,0,2,.667,2.963,2.963,0,0,0,1.733-1.2c1.067-1.467.933-2.667-.4-3.733-1.467-1.067-2.667-.933-3.867.533a2.449,2.449,0,0,0-.667,2C-28.494,488.2-28.094,488.733-27.294,489.4Zm7.467,6.933a1.636,1.636,0,0,0,1.733.267,5,5,0,0,0,1.867-1.6,5.724,5.724,0,0,0,1.467-3.067,1.994,1.994,0,0,0-.8-2,1.587,1.587,0,0,0-1.467-.4,4.392,4.392,0,0,0-1.733,1.6l-1.333,1.733a2.32,2.32,0,0,0-.667,1.867A2.033,2.033,0,0,0-19.827,496.333Z" transform="translate(-10.04 160.067)"/><path d="M-12.775,483.605a5.829,5.829,0,0,1-3.867,2.4,7.041,7.041,0,0,1-4.533-1.467,6.573,6.573,0,0,1-2.8-4,5.211,5.211,0,0,1,.933-4.133,4.7,4.7,0,0,1,3.333-2,5.49,5.49,0,0,1,3.867,1.333l.933.667-5.067,6.533a4.819,4.819,0,0,0,3.2,1.067,4.393,4.393,0,0,0,2.667-1.6,11.263,11.263,0,0,0,1.733-3.6l1.333.933a7.708,7.708,0,0,1-.667,1.867A7.311,7.311,0,0,1-12.775,483.605Zm-9.067-6.4a3.331,3.331,0,0,0-.667,2.4,4.7,4.7,0,0,0,1.467,2.4l3.867-5.067a4.535,4.535,0,0,0-2.533-1.067A5.219,5.219,0,0,0-21.842,477.205Z" transform="translate(-8.025 158.128)"/><path d="M-16.3,468.067A7.628,7.628,0,0,1-15.367,467l1.2,1.2a6.163,6.163,0,0,0-.933.933,3.193,3.193,0,0,0-.533,2.667,4.915,4.915,0,0,0,1.733,2.667l5.067,4L-9.9,479.933l-9.6-7.333.933-1.2,1.867,1.2v-.133a3.847,3.847,0,0,1-.4-2.4A4.516,4.516,0,0,1-16.3,468.067Z" transform="translate(-6.5 155.667)"/></g><g clip-path="url(#a)"><path d="M155.9,595.8l2.133,4a7.731,7.731,0,0,1,1.333,4.533,3.37,3.37,0,0,1-2,2.667,3.847,3.847,0,0,1-2.4.4,3.672,3.672,0,0,1-2.133-1.467H152.7c.8,2.4.267,4-1.6,5.067a3.893,3.893,0,0,1-3.6.267,6,6,0,0,1-2.933-3.067l-2.667-4.933Zm-6.533,5.6-5.333,2.8,1.6,2.933a5.73,5.73,0,0,0,2,2.267,2.528,2.528,0,0,0,2.533-.267,2.5,2.5,0,0,0,1.467-1.867,5.009,5.009,0,0,0-.8-3.067Zm1.333-.667,1.467,2.667a5.611,5.611,0,0,0,1.867,2.267,2.39,2.39,0,0,0,2.267-.267,1.971,1.971,0,0,0,1.2-1.733,7,7,0,0,0-.933-3.067l-1.333-2.4Z" transform="translate(47.3 198.6)"/><path d="M150.259,618.733l1.333-1.067v-.133a5.039,5.039,0,0,1-2.267-.8A6.635,6.635,0,0,1,147.859,615a4.008,4.008,0,0,1-.533-2.933,3.246,3.246,0,0,1,1.867-2.133c2.133-1.2,4.133,0,6.133,3.333L156.393,615l.667-.4a3.474,3.474,0,0,0,1.6-1.467,2.253,2.253,0,0,0-.267-2,8.538,8.538,0,0,0-2.4-2.533l.933-1.2a14.139,14.139,0,0,1,1.6,1.333,5.074,5.074,0,0,1,1.2,1.733,4.586,4.586,0,0,1,.667,3.334,3.917,3.917,0,0,1-2.267,2.4l-7.2,3.867Zm-.8-4.267a3.248,3.248,0,0,0,2.133,1.867,3.645,3.645,0,0,0,2.8-.4l.933-.533-.933-1.6a5.518,5.518,0,0,0-2.133-2.4,2.043,2.043,0,0,0-2.133,0,1.893,1.893,0,0,0-1.067,1.2A2.423,2.423,0,0,0,149.46,614.467Z" transform="translate(49.074 202.467)"/><path d="M155.2,628.567l6.933-3.733a2.652,2.652,0,0,0,1.6-1.6,2.188,2.188,0,0,0-.4-2.133,3.675,3.675,0,0,0-2.267-2,6.388,6.388,0,0,0-3.467.8l-5.6,2.933-.8-1.6,15.067-8.133.8,1.6-4.533,2.4a12.95,12.95,0,0,1-1.467.667v.133a3.186,3.186,0,0,1,1.867.667A4.643,4.643,0,0,1,164.4,620.3a4.92,4.92,0,0,1,.667,3.467,4.366,4.366,0,0,1-2.4,2.533l-6.933,3.733Z" transform="translate(50.4 204.367)"/><path d="M160.067,637.167,167,633.433a2.652,2.652,0,0,0,1.6-1.6,2.188,2.188,0,0,0-.4-2.133,3.674,3.674,0,0,0-2.267-2,5.762,5.762,0,0,0-3.333.8l-5.6,2.933-.8-1.6,10.667-5.733.667,1.333L166.2,626.5v.133a3.2,3.2,0,0,1,2,.8,4.643,4.643,0,0,1,1.467,1.733,4.692,4.692,0,0,1,.667,3.334,4.365,4.365,0,0,1-2.4,2.533L161,638.766Z" transform="translate(52.067 208.033)"/><path d="M165,646.867l6.933-3.733a2.653,2.653,0,0,0,1.6-1.6,2.188,2.188,0,0,0-.4-2.134,3.675,3.675,0,0,0-2.267-2,6.385,6.385,0,0,0-3.467.8l-5.6,2.933-.8-1.6,15.067-8.133.8,1.6-4.533,2.4a12.979,12.979,0,0,1-1.467.667v.133a3.187,3.187,0,0,1,1.867.667A4.642,4.642,0,0,1,174.2,638.6a4.919,4.919,0,0,1,.667,3.467,4.365,4.365,0,0,1-2.4,2.533l-6.933,3.734Z" transform="translate(53.667 210.467)"/><path d="M175.809,654.224a6.415,6.415,0,0,1-4.8.8,5.3,5.3,0,0,1-3.333-2.8,4.566,4.566,0,0,1-.667-2.933,4.9,4.9,0,0,1,1.067-2.8,8.695,8.695,0,0,1,7.467-3.067,5.3,5.3,0,0,1,3.333,2.8,5.147,5.147,0,0,1,.4,4.4A7.508,7.508,0,0,1,175.809,654.224Zm-4.267-8.133a5.5,5.5,0,0,0-2.667,2.533,2.943,2.943,0,0,0,.267,2.933,3.092,3.092,0,0,0,2.4,1.867,6.578,6.578,0,0,0,3.6-.8,5.5,5.5,0,0,0,2.667-2.533,3.315,3.315,0,0,0-.267-2.933,3.118,3.118,0,0,0-2.267-1.867A5.637,5.637,0,0,0,171.542,646.091Z" transform="translate(55.658 214.442)"/><path d="M182.6,657.233l-1.467-2.667-9.333,5.067-.8-1.6,9.333-5.067-1.067-1.867.667-.4,1.6,1.6.533-.267c2.667-1.333,4.533-.933,5.733,1.333a8.048,8.048,0,0,1,.667,2.133l-1.467.267a5.323,5.323,0,0,0-.533-1.733,1.771,1.771,0,0,0-1.333-1.067,3.03,3.03,0,0,0-2.133.667l-.667.4L183.8,656.7Z" transform="translate(57 216.9)"/><path d="M180,667.421a3.256,3.256,0,0,1-2.933.133,5.311,5.311,0,0,1-2.4-2.667,7.59,7.59,0,0,1-1.067-3.6l1.467-.8a10.288,10.288,0,0,0,.267,2,7.718,7.718,0,0,0,.667,1.867,3.9,3.9,0,0,0,1.467,1.733,1.7,1.7,0,0,0,1.6,0,1.657,1.657,0,0,0,.8-1.067,6.32,6.32,0,0,0-.133-2.667,9.729,9.729,0,0,1-.133-2.667,2.688,2.688,0,0,1,.4-1.467,3.6,3.6,0,0,1,1.067-.933,2.714,2.714,0,0,1,2.667,0A5.356,5.356,0,0,1,186,659.821a9.249,9.249,0,0,1,1.067,3.734l-1.6.133a6.993,6.993,0,0,0-.933-3.2c-.4-.8-.8-1.333-1.333-1.467a1.212,1.212,0,0,0-1.333,0,1.61,1.61,0,0,0-.667.667,2.293,2.293,0,0,0-.133,1.067,8.844,8.844,0,0,0,.267,2.267,6.827,6.827,0,0,1,0,3.333A7.3,7.3,0,0,1,180,667.421Z" transform="translate(57.867 218.979)"/><path d="M179.967,672.4a2.784,2.784,0,0,0,.533.8c.133.267.4.4.533.533l-1.2.667-.667-.667a2.149,2.149,0,0,1-.533-.933c-1.067-2-.533-3.733,1.6-4.8l6.267-3.333-.8-1.467.8-.4,1.467,1.2,2.667-.533.533.933-2.4,1.333,1.6,3.067-1.2.666-1.6-3.067-6.267,3.333a2.549,2.549,0,0,0-1.2,1.2A1.2,1.2,0,0,0,179.967,672.4Z" transform="translate(59.367 220.933)"/><path d="M193.567,673.667A9.187,9.187,0,0,1,194.1,675l-1.6.533a2.513,2.513,0,0,0-.533-1.2,2.932,2.932,0,0,0-2.267-1.6,3.68,3.68,0,0,0-3.067.533l-5.733,3.067-.8-1.6L190.767,669l.667,1.334-1.867,1.2v.133a6.368,6.368,0,0,1,2.4.533A3.393,3.393,0,0,1,193.567,673.667Z" transform="translate(60.033 223)"/><path d="M186.759,687.033l1.333-1.067v-.133a5.039,5.039,0,0,1-2.267-.8,6.634,6.634,0,0,1-1.467-1.733,4.008,4.008,0,0,1-.533-2.933,3.247,3.247,0,0,1,1.867-2.133c2.133-1.2,4.133,0,6.133,3.333l1.067,1.733.667-.4a3.475,3.475,0,0,0,1.6-1.467,2.253,2.253,0,0,0-.267-2,8.542,8.542,0,0,0-2.4-2.533l.933-1.2a14.115,14.115,0,0,1,1.6,1.333,5.075,5.075,0,0,1,1.2,1.733,4.586,4.586,0,0,1,.667,3.333,3.918,3.918,0,0,1-2.267,2.4l-7.2,3.867Zm-.8-4.267a3.247,3.247,0,0,0,2.133,1.867,3.644,3.644,0,0,0,2.8-.4l.933-.533-.933-1.6a5.52,5.52,0,0,0-2.133-2.4,2.043,2.043,0,0,0-2.133,0,1.893,1.893,0,0,0-1.067,1.2A2.424,2.424,0,0,0,185.959,682.767Z" transform="translate(61.241 225.233)"/><path d="M204.533,691.123c-.933.533-1.867.4-3.2-.133a10.481,10.481,0,0,0-1.6-.533,1.693,1.693,0,0,0-.8.133q-.4.2-.4.4c-.133.133-.133.4-.267.667,0,.267-.133.8-.133,1.467a10.779,10.779,0,0,1-.667,2.8A3.126,3.126,0,0,1,196,697.389a3.315,3.315,0,0,1-2.933.267,4.15,4.15,0,0,1-2.267-2.267,5.181,5.181,0,0,1-.8-3.2l1.467-.8a8.2,8.2,0,0,0,.133,1.733,7.523,7.523,0,0,0,.533,1.6c.8,1.333,1.733,1.733,2.933,1.2a2.73,2.73,0,0,0,1.067-1.067,4.311,4.311,0,0,0,.4-2.133,8.055,8.055,0,0,1,.533-2.4,2.616,2.616,0,0,1,1.2-1.2,2.192,2.192,0,0,1,1.333-.267,3.177,3.177,0,0,1,1.6.533c.667.266,1.2.4,1.6.533a2.6,2.6,0,0,0,1.067-.133,1.338,1.338,0,0,0,.8-1.333,4.973,4.973,0,0,0-.533-2.133c-.933-1.733-2.133-2.267-3.6-1.467L188.8,691.123l-.8-1.6,11.733-6.267a3.548,3.548,0,0,1,3.2-.4,6.047,6.047,0,0,1,2.667,2.8,6.458,6.458,0,0,1,.933,3.467A7.127,7.127,0,0,1,204.533,691.123Z" transform="translate(62.667 227.544)"/><path d="M194.6,702.558a5.541,5.541,0,0,1-.533-4.533,6.674,6.674,0,0,1,3.2-3.467,7.246,7.246,0,0,1,4.8-.933,4.9,4.9,0,0,1,3.333,2.533,5,5,0,0,1,.4,3.867,6.152,6.152,0,0,1-2.8,3.067l-1.067.533-3.867-7.333a5.2,5.2,0,0,0-2.4,2.4,4.242,4.242,0,0,0,.4,3.067,11.116,11.116,0,0,0,2.533,3.067l-1.467.8a6.281,6.281,0,0,1-1.333-1.333A19.506,19.506,0,0,1,194.6,702.558Zm9.467-5.6a3.154,3.154,0,0,0-1.867-1.6,3.645,3.645,0,0,0-2.8.4l2.933,5.6a3.932,3.932,0,0,0,2-1.867A3.321,3.321,0,0,0,204.069,696.958Z" transform="translate(64.597 231.175)"/></g><g clip-path="url(#a)"><path d="M544.367,611.833l-4.533,4.933-1.333-1.333L549.433,603.7l3.2,3.067a6.587,6.587,0,0,1,2.4,3.867A4.144,4.144,0,0,1,553.7,614.1c-1.467,1.6-3.2,1.866-5.333.933l-1.733,8.267-1.6-1.467,1.733-7.6Zm1.067-1.2,1.867,1.734a4.9,4.9,0,0,0,2.667,1.467,2.816,2.816,0,0,0,2.267-1.067,2.99,2.99,0,0,0,.933-2.267,4.545,4.545,0,0,0-1.733-2.533l-1.733-1.6Z" transform="translate(179.5 201.233)"/><path d="M549.1,624.94a5.366,5.366,0,0,1-2-4.134,6.6,6.6,0,0,1,2-4.4,6.4,6.4,0,0,1,4.267-2.4,5.073,5.073,0,0,1,4,1.333,4.974,4.974,0,0,1,1.6,3.6,5.69,5.69,0,0,1-1.733,3.733l-.8.8L550.3,617.74a5,5,0,0,0-1.467,3.066,3.717,3.717,0,0,0,1.333,2.8,8.583,8.583,0,0,0,3.333,2l-1.067,1.2c-.667-.267-1.2-.533-1.733-.8A3.74,3.74,0,0,1,549.1,624.94Zm7.067-8.4a3.212,3.212,0,0,0-2.4-.933,4.437,4.437,0,0,0-2.533,1.2l4.667,4.267a3.458,3.458,0,0,0,1.2-2.4A2.579,2.579,0,0,0,556.167,616.54Z" transform="translate(182.367 204.661)"/><path d="M569.158,625.933l-.8.8-1.867-1.333a4.126,4.126,0,0,1-.267,1.067,3.151,3.151,0,0,1-.8,1.2,3.39,3.39,0,0,1-2.8,1.2,5,5,0,0,1-3.2-1.467,3.527,3.527,0,0,1-.667-.8,1.557,1.557,0,0,0-1.867.4.98.98,0,0,0-.267.8,4.379,4.379,0,0,0,.8,1.067l1.6,1.467a4.786,4.786,0,0,1,1.6,2.667,2.8,2.8,0,0,1-.934,2.533,3.329,3.329,0,0,1-3.2,1.066,9.665,9.665,0,0,1-4.133-2.4,6.431,6.431,0,0,1-2.133-3.2,2.558,2.558,0,0,1,.8-2.667,3.133,3.133,0,0,1,1.867-.933,3.206,3.206,0,0,1,2.133.534,2.6,2.6,0,0,1-.134-1.067,1.349,1.349,0,0,1,.534-.934,2.9,2.9,0,0,1,1.067-.667,5.376,5.376,0,0,1,1.467,0,3.5,3.5,0,0,1-.267-2,4.9,4.9,0,0,1,1.067-2,4.159,4.159,0,0,1,2.933-1.466,5,5,0,0,1,3.2,1.466,9.372,9.372,0,0,1,1.067,1.333Zm-16.667,3.733a1.844,1.844,0,0,0-.4,1.6,4.387,4.387,0,0,0,1.333,2,7.534,7.534,0,0,0,2.934,1.867,2.133,2.133,0,0,0,2.133-.667c.4-.533.667-.933.533-1.467a4.678,4.678,0,0,0-1.467-1.867l-1.6-1.467a4.107,4.107,0,0,0-1.867-.933A3.352,3.352,0,0,0,552.492,629.667Zm7.733-6.8a2.882,2.882,0,0,0-.8,1.867,2.737,2.737,0,0,0,1.067,1.867c1.333,1.2,2.533,1.2,3.733-.133s1.2-2.667-.133-3.867c-.667-.533-1.333-.933-1.867-.8A2.743,2.743,0,0,0,560.225,622.867Z" transform="translate(183.375 206.6)"/><path d="M560.933,636.633l-1.333-1.2L571.333,622.9l1.333,1.2Z" transform="translate(186.533 207.633)"/><path d="M565.9,640.64a5.366,5.366,0,0,1-2-4.133,6.6,6.6,0,0,1,2-4.4,6.4,6.4,0,0,1,4.267-2.4,5.073,5.073,0,0,1,4,1.333,4.973,4.973,0,0,1,1.6,3.6,5.69,5.69,0,0,1-1.733,3.733l-.8.8-6.133-5.734a5,5,0,0,0-1.467,3.067,3.716,3.716,0,0,0,1.333,2.8,8.581,8.581,0,0,0,3.333,2l-1.067,1.2c-.667-.267-1.2-.533-1.733-.8A2.285,2.285,0,0,1,565.9,640.64Zm7.067-8.267a3.212,3.212,0,0,0-2.4-.933,4.437,4.437,0,0,0-2.533,1.2l4.667,4.266a3.456,3.456,0,0,0,1.2-2.4A2.149,2.149,0,0,0,572.967,632.373Z" transform="translate(187.967 209.894)"/><path d="M582,638.7a6.7,6.7,0,0,1,.933,1.067l-1.333,1.067a7.392,7.392,0,0,0-.8-1.067,3.092,3.092,0,0,0-2.667-.8,4.152,4.152,0,0,0-2.8,1.466l-4.4,4.667-1.333-1.2,8.267-8.8,1.067,1.067L577.6,637.9h0a5.133,5.133,0,0,1,2.4-.267A3.67,3.67,0,0,1,582,638.7Z" transform="translate(189.867 211.7)"/><path d="M585.933,659.134l5.333-5.734a2.992,2.992,0,0,0,1.067-2,2.522,2.522,0,0,0-.933-1.867,3.532,3.532,0,0,0-2.533-1.067,5.258,5.258,0,0,0-2.667,1.6L581.533,655l-1.333-1.2,5.333-5.734a3.7,3.7,0,0,0,1.067-2,2.522,2.522,0,0,0-.933-1.867,2.919,2.919,0,0,0-2.533-.933,6.229,6.229,0,0,0-2.933,1.867l-4.267,4.666-1.333-1.2,8.267-8.8,1.067,1.067L583,642.333h0a5.052,5.052,0,0,1,2,0,3.8,3.8,0,0,1,1.867,1.067c1.333,1.333,1.867,2.667,1.333,4h0a2.947,2.947,0,0,1,2.133,0,3.858,3.858,0,0,1,2.133,1.2,4.144,4.144,0,0,1,1.467,2.8,5.159,5.159,0,0,1-1.6,3.2L587,660.333Z" transform="translate(191.533 213.267)"/><path d="M591.406,664.133l.933-1.467h0a4.7,4.7,0,0,1-2.4-.133,7.352,7.352,0,0,1-1.866-1.2,4.215,4.215,0,0,1-1.467-2.534,3.312,3.312,0,0,1,1.067-2.667c1.6-1.733,4-1.333,6.933,1.2l1.6,1.333.533-.533a2.778,2.778,0,0,0,.933-2,2.52,2.52,0,0,0-.933-1.867,8.3,8.3,0,0,0-3.067-1.6l.533-1.467a6.294,6.294,0,0,1,2,.8,19.524,19.524,0,0,1,1.733,1.2,4.916,4.916,0,0,1,1.733,2.933c.133.933-.4,1.867-1.333,2.933l-5.6,6Zm-2.133-3.734a3.729,3.729,0,0,0,2.533,1.2,3.493,3.493,0,0,0,2.534-1.2l.8-.8-1.333-1.2a6.148,6.148,0,0,0-2.8-1.6,2.2,2.2,0,0,0-2,.667c-.4.533-.667.933-.534,1.466A2.05,2.05,0,0,0,589.273,660.4Z" transform="translate(195.527 217.067)"/><path d="M602.333,658.1,597,663.833a3.266,3.266,0,0,0-1.067,2.133,2.993,2.993,0,0,0,1.067,2,3.471,3.471,0,0,0,2.667,1.067,4.92,4.92,0,0,0,2.933-1.867l4.267-4.667,1.333,1.2-8.266,8.8-1.067-1.067.933-1.333h-.133a5.732,5.732,0,0,1-2.133,0,7.955,7.955,0,0,1-2-1.2,5.2,5.2,0,0,1-1.733-3.067,4.406,4.406,0,0,1,1.467-3.2L600.6,656.9Z" transform="translate(197.933 218.967)"/><path d="M603.8,676.139a5.364,5.364,0,0,1-2-4.133,6.6,6.6,0,0,1,2-4.4,6.4,6.4,0,0,1,4.266-2.4,5.074,5.074,0,0,1,4,1.333,4.974,4.974,0,0,1,1.6,3.6,5.69,5.69,0,0,1-1.733,3.733l-.8.8L605,668.939a5,5,0,0,0-1.466,3.067,3.715,3.715,0,0,0,1.333,2.8,8.579,8.579,0,0,0,3.333,2l-1.067,1.2c-.667-.267-1.2-.533-1.733-.8A4.729,4.729,0,0,1,603.8,676.139Zm7.2-8.4a3.213,3.213,0,0,0-2.4-.933,4.436,4.436,0,0,0-2.533,1.2l4.667,4.267a3.457,3.457,0,0,0,1.2-2.4A2.841,2.841,0,0,0,611,667.739Z" transform="translate(200.6 221.727)"/><path d="M620,674.1a6.692,6.692,0,0,1,.933,1.067l-1.333,1.067a7.4,7.4,0,0,0-.8-1.067,3.093,3.093,0,0,0-2.667-.8,4.153,4.153,0,0,0-2.8,1.467l-4.4,4.667-1.333-1.2,8.267-8.8,1.067,1.066L615.6,673.3h0a5.306,5.306,0,0,1,2.4-.267A5.8,5.8,0,0,1,620,674.1Z" transform="translate(202.533 223.5)"/></g><g clip-path="url(#a)"><path d="M899.7,768.533a3.48,3.48,0,0,1-1.333.933l-1.2-1.067a9.355,9.355,0,0,0,1.333-1.067,2.112,2.112,0,0,0,.667-1.6,2.815,2.815,0,0,0-.933-1.733L886.5,752.933l1.333-1.333,11.6,10.933a4.1,4.1,0,0,1,1.6,2.933A4.259,4.259,0,0,1,899.7,768.533Z" transform="translate(295.5 250.533)"/><path d="M892.967,752.1l5.733,5.333a3.293,3.293,0,0,0,2,1.067,2.992,2.992,0,0,0,2-1.067,3.673,3.673,0,0,0,1.2-2.667,4.922,4.922,0,0,0-1.867-2.933l-4.667-4.4,1.2-1.333,8.8,8.267-1.067,1.067-1.333-.933-.133.133a3.959,3.959,0,0,1-.133,2.133,7.96,7.96,0,0,1-1.2,2,5.2,5.2,0,0,1-3.067,1.733,4.406,4.406,0,0,1-3.2-1.467l-5.733-5.467Z" transform="translate(297.167 248.7)"/><path d="M902.4,741.033a6.69,6.69,0,0,1,1.067-.933l1.067,1.333a7.4,7.4,0,0,0-1.067.8,3.093,3.093,0,0,0-.8,2.667,4.153,4.153,0,0,0,1.467,2.8l4.667,4.4-1.2,1.333-8.8-8.267,1.067-1.067,1.733,1.333h0a5.136,5.136,0,0,1-.267-2.4A7.072,7.072,0,0,1,902.4,741.033Z" transform="translate(299.6 246.7)"/><path d="M901.8,737.8a1.152,1.152,0,0,1-.4-.8,1.892,1.892,0,0,1,.267-.8c.133-.267.4-.267.8-.4a1.772,1.772,0,0,1,.933.4,1.152,1.152,0,0,1,.4.8,1.893,1.893,0,0,1-.267.8.95.95,0,0,1-.8.4A1.211,1.211,0,0,1,901.8,737.8Zm12.533,9.067-1.2,1.333-8.8-8.267,1.2-1.333Z" transform="translate(300.467 245.267)"/><path d="M910,741.2l-1.2-1.2,3.733-4,1.2,1.2Z" transform="translate(302.933 245.333)"/><path d="M918.027,731.833l3.733-4,5.733,5.333a12.671,12.671,0,0,1-1.333,2.267,27.122,27.122,0,0,1-2,2.4,7.649,7.649,0,0,1-5.467,2.667c-2,0-3.867-.933-5.867-2.667a10.929,10.929,0,0,1-2.533-3.733,7.239,7.239,0,0,1-.133-4.133,10.525,10.525,0,0,1,2.267-3.867,13.579,13.579,0,0,1,4-2.8l.667,1.6a12.121,12.121,0,0,0-3.6,2.4,5.936,5.936,0,0,0-1.867,4.533,8.3,8.3,0,0,0,7.067,6.8,5.971,5.971,0,0,0,4.4-2.267,12.679,12.679,0,0,0,2-2.667l-3.6-3.333-2.533,2.667Z" transform="translate(303.306 241.1)"/><path d="M932.4,727.167l-1.467-.934h0a4.707,4.707,0,0,1-.133,2.4,7.36,7.36,0,0,1-1.2,1.867,4.161,4.161,0,0,1-2.667,1.467,3.312,3.312,0,0,1-2.667-1.067c-1.733-1.733-1.333-4,1.2-6.933l1.333-1.6-.533-.533a2.778,2.778,0,0,0-2-.933,2.522,2.522,0,0,0-1.867.933,10.934,10.934,0,0,0-1.733,3.067l-1.466-.533a6.283,6.283,0,0,1,.8-2,19.537,19.537,0,0,1,1.2-1.733,4.917,4.917,0,0,1,2.933-1.733,4.448,4.448,0,0,1,2.933,1.333l6,5.6Zm-3.733,2.133a3.731,3.731,0,0,0,1.2-2.534,3.493,3.493,0,0,0-1.2-2.533l-.8-.8-1.2,1.333a6.144,6.144,0,0,0-1.6,2.8,2.2,2.2,0,0,0,.667,2c.533.4.933.667,1.467.533A3.232,3.232,0,0,0,928.667,729.3Z" transform="translate(306.4 239.633)"/><path d="M931.734,710.7l.8.8-1.333,1.867a4.116,4.116,0,0,1,1.067.267,3.149,3.149,0,0,1,1.2.8,3.839,3.839,0,0,1,1.2,2.8,5,5,0,0,1-1.467,3.2,3.531,3.531,0,0,1-.8.667,1.769,1.769,0,0,0,.267,1.867.98.98,0,0,0,.8.267,4.371,4.371,0,0,0,1.067-.8l1.467-1.6a4.784,4.784,0,0,1,2.667-1.6,2.8,2.8,0,0,1,2.533.933,3.328,3.328,0,0,1,1.067,3.2,9.672,9.672,0,0,1-2.4,4.133,5.356,5.356,0,0,1-3.2,2,2.558,2.558,0,0,1-2.667-.8,3.132,3.132,0,0,1-.934-1.866,3.207,3.207,0,0,1,.533-2.133,2.6,2.6,0,0,1-1.067.133,1.35,1.35,0,0,1-.933-.533,1.647,1.647,0,0,1-.533-1.067,5.384,5.384,0,0,1,0-1.467,3.5,3.5,0,0,1-2,.267,4.9,4.9,0,0,1-2-1.067,4.159,4.159,0,0,1-1.467-2.933,5,5,0,0,1,1.467-3.2,9.353,9.353,0,0,1,1.333-1.067Zm-3.067,8.933a2.88,2.88,0,0,0,1.867.8,2.736,2.736,0,0,0,1.866-1.067c1.2-1.333,1.2-2.533,0-3.733-1.333-1.2-2.533-1.2-3.867.133-.533.667-.933,1.2-.8,1.867A2.349,2.349,0,0,0,928.667,719.633Zm6.8,7.733a1.844,1.844,0,0,0,1.6.4,4.389,4.389,0,0,0,2-1.333,6.228,6.228,0,0,0,1.867-2.933,2.4,2.4,0,0,0-.533-2.133c-.533-.4-.933-.667-1.467-.533a5.422,5.422,0,0,0-1.867,1.333l-1.467,1.6a3.112,3.112,0,0,0-.933,1.867A1.955,1.955,0,0,0,935.467,727.367Z" transform="translate(308.533 236.9)"/><path d="M945.167,713.567l-1.467-.933h0a4.7,4.7,0,0,1-.133,2.4,7.356,7.356,0,0,1-1.2,1.867,4.162,4.162,0,0,1-2.667,1.467,3.312,3.312,0,0,1-2.666-1.067c-1.733-1.733-1.333-4,1.2-6.933l1.333-1.6-.533-.533a2.778,2.778,0,0,0-2-.933,2.522,2.522,0,0,0-1.867.933,9.286,9.286,0,0,0-1.733,3.067l-1.333-.533a6.287,6.287,0,0,1,.8-2,19.5,19.5,0,0,1,1.2-1.733,4.918,4.918,0,0,1,2.933-1.733,4.448,4.448,0,0,1,2.933,1.334l6,5.6Zm-3.734,2.133a3.73,3.73,0,0,0,1.2-2.533,3.493,3.493,0,0,0-1.2-2.533l-.8-.8-1.2,1.333a6.142,6.142,0,0,0-1.6,2.8,2.2,2.2,0,0,0,.667,2c.533.4.933.667,1.467.533A2.316,2.316,0,0,0,941.433,715.7Z" transform="translate(310.7 235.1)"/><path d="M941.6,699.633a6.672,6.672,0,0,1,1.066-.933l1.067,1.333a7.44,7.44,0,0,0-1.067.8,3.093,3.093,0,0,0-.8,2.667,4.154,4.154,0,0,0,1.467,2.8L948,710.7l-1.2,1.333-8.8-8.267,1.067-1.067,1.733,1.333h0a5.134,5.134,0,0,1-.267-2.4A3.667,3.667,0,0,1,941.6,699.633Z" transform="translate(312.667 232.9)"/><path d="M940.9,696.4a1.153,1.153,0,0,1-.4-.8,1.893,1.893,0,0,1,.267-.8c.133-.267.4-.267.8-.4a1.773,1.773,0,0,1,.933.4,1.152,1.152,0,0,1,.4.8,1.894,1.894,0,0,1-.267.8.95.95,0,0,1-.8.4A1.44,1.44,0,0,1,940.9,696.4Zm12.533,9.067-1.2,1.333-8.8-8.267,1.2-1.333Z" transform="translate(313.5 231.467)"/><path d="M960,698.167l-5.733-5.333a3.3,3.3,0,0,0-2-1.067,2.993,2.993,0,0,0-2,1.067,3.674,3.674,0,0,0-1.2,2.667,4.919,4.919,0,0,0,1.867,2.933l4.667,4.4-1.2,1.333-8.8-8.267,1.067-1.067,1.467.933h0a3.956,3.956,0,0,1,.133-2.133,7.962,7.962,0,0,1,1.2-2,4.851,4.851,0,0,1,3.067-1.733,4.406,4.406,0,0,1,3.2,1.467l5.733,5.467Z" transform="translate(315.2 229.967)"/><path d="M956.333,692.2,955,691l3.734-4,1.2,1.2Z" transform="translate(318.333 229)"/><path d="M962.533,687.106l4.933,4.533-1.333,1.333L954.4,681.906l3.067-3.2a6.587,6.587,0,0,1,3.867-2.4,4.144,4.144,0,0,1,3.467,1.333c1.6,1.467,1.867,3.2.933,5.333L974,684.706l-1.467,1.6-7.6-1.733Zm-1.2-1.067,1.734-1.867a4.9,4.9,0,0,0,1.467-2.667,2.815,2.815,0,0,0-1.067-2.267,2.991,2.991,0,0,0-2.267-.933,4.546,4.546,0,0,0-2.533,1.733l-1.733,1.733Z" transform="translate(318.133 225.427)"/><path d="M961.9,674.1a1.153,1.153,0,0,1-.4-.8,1.9,1.9,0,0,1,.267-.8,1.518,1.518,0,0,1,.8-.4,1.772,1.772,0,0,1,.933.4,1.153,1.153,0,0,1,.4.8,1.9,1.9,0,0,1-.267.8.95.95,0,0,1-.8.4C962.434,674.633,962.167,674.5,961.9,674.1Zm12.533,9.2-1.2,1.333-8.8-8.267,1.2-1.333Z" transform="translate(320.5 224.033)"/><path d="M981,675.833l-5.734-5.333a3.294,3.294,0,0,0-2-1.067,2.993,2.993,0,0,0-2,1.067,3.674,3.674,0,0,0-1.2,2.667,4.92,4.92,0,0,0,1.867,2.933l4.667,4.4-1.2,1.333-8.8-8.267,1.067-1.067,1.467.933h0a3.956,3.956,0,0,1,.133-2.133,7.967,7.967,0,0,1,1.2-2,4.352,4.352,0,0,1,3.067-1.6,4.405,4.405,0,0,1,3.2,1.467l5.733,5.467Z" transform="translate(322.2 222.567)"/><path d="M980.333,659.2l.8.8-1.334,1.867a4.122,4.122,0,0,1,1.067.267,3.15,3.15,0,0,1,1.2.8,3.837,3.837,0,0,1,1.2,2.8,5,5,0,0,1-1.467,3.2,3.537,3.537,0,0,1-.8.667,1.768,1.768,0,0,0,.267,1.867.98.98,0,0,0,.8.266,4.36,4.36,0,0,0,1.067-.8l1.467-1.6a4.782,4.782,0,0,1,2.667-1.6,2.8,2.8,0,0,1,2.533.933A3.465,3.465,0,0,1,990.867,672a9.67,9.67,0,0,1-2.4,4.133,5.356,5.356,0,0,1-3.2,2,2.558,2.558,0,0,1-2.667-.8,3.13,3.13,0,0,1-.933-1.867,4.219,4.219,0,0,1,.533-2.133,2.6,2.6,0,0,1-1.067.133,1.349,1.349,0,0,1-.933-.533,1.646,1.646,0,0,1-.533-1.067,5.379,5.379,0,0,1,0-1.467,3.5,3.5,0,0,1-2,.267,4.9,4.9,0,0,1-2-1.067,4.159,4.159,0,0,1-1.467-2.933,5,5,0,0,1,1.467-3.2A9.341,9.341,0,0,1,977,662.4Zm-3.067,8.933a2.881,2.881,0,0,0,1.867.8A2.74,2.74,0,0,0,981,667.867c1.2-1.333,1.2-2.533,0-3.733-1.333-1.2-2.533-1.2-3.867.133-.534.667-.933,1.2-.8,1.867A2.349,2.349,0,0,0,977.267,668.133Zm6.667,7.733a1.844,1.844,0,0,0,1.6.4,4.389,4.389,0,0,0,2-1.333A7.537,7.537,0,0,0,989.4,672a2.4,2.4,0,0,0-.533-2.133c-.533-.4-.933-.667-1.467-.533a5.418,5.418,0,0,0-1.867,1.333l-1.467,1.6a3.111,3.111,0,0,0-.933,1.867A2.347,2.347,0,0,0,983.933,675.867Z" transform="translate(324.733 219.733)"/></g><g clip-path="url(#a)"><path d="M324.733,116.333,277.8,102.067,313.667,68.6Z" transform="translate(92.6 22.867)" fill="#3d3d3b"/></g></svg>