<svg xmlns="http://www.w3.org/2000/svg" width="811.748" height="480" viewBox="0 0 811.748 480"><path d="M64.509,344.225l7.1,23.9H51.261l7.2-23.9a2.964,2.964,0,0,1,2.976-2.5A3.238,3.238,0,0,1,64.509,344.225Zm436.682,7.968c0-6.528-5.184-9.312-11.615-9.312H479.112l-.1,19.007h10.367C496.3,361.888,501.191,358.625,501.191,352.193Zm61.053,77.276H21.5A21.468,21.468,0,0,1,0,407.966V313.6a21.468,21.468,0,0,1,21.5-21.5H594.114l30.143,60.093a52.591,52.591,0,0,0-20.351,4.608l-14.591,6.912L573.475,371.3h0l-6.816,3.264L553.412,380.9c-14.111,6.72-15.647,17.567-15.647,21.983,0,4.32,1.536,15.167,15.647,21.887l9.408,4.512ZM85.82,388.383l-14.5-46.558a9.886,9.886,0,0,0-9.984-7.3,10.037,10.037,0,0,0-9.888,7.3l-14.5,46.558h8.16l3.84-12.863,24.671-.1,3.84,12.959Zm83.9,0L163,341.825c-.672-4.7-3.936-7.2-8.16-7.2-3.84,0-7.2,1.92-8.256,6.048L136.505,377.44c-.288.672-.288.96-.768.96-.384,0-.576-.192-.672-.96l-10.271-36.958c-1.152-4.224-4.416-5.952-8.256-5.952a7.887,7.887,0,0,0-8.256,7.008l-7.392,46.942h8.256l6.528-44.254c.192-1.248.672-1.824,1.44-1.824.672,0,1.152.48,1.44,1.536l10.847,38.11a6.48,6.48,0,0,0,6.432,4.608,6.276,6.276,0,0,0,6.432-4.7l10.943-37.918c.288-1.056.672-1.536,1.44-1.536.864,0,1.152.672,1.344,1.824l5.856,44.062Zm94.267,0-14.4-46.558a9.886,9.886,0,0,0-9.983-7.3,10.037,10.037,0,0,0-9.888,7.3l-14.5,46.558h8.16l3.84-12.863,24.671-.1,3.84,12.959ZM327.44,335.49h-7.68v45.118c0,.48-.1.672-.384.672-.48,0-.672-.288-.864-1.056l-22.271-41.662a7.219,7.219,0,0,0-6.912-4.032c-4.032,0-7.2,2.784-7.2,7.584v46.27h7.68v-44.83c0-.672.192-.96.672-.96.384,0,.576.288.672.96l22.175,41.662a7.6,7.6,0,0,0,7.1,4.128c3.648,0,7.008-2.688,7.008-7.488Zm67.1,28.223h-7.776V376.48c-2.5,2.976-7.68,5.472-14.015,5.472-10.751,0-18.623-8.64-18.623-19.871,0-11.039,7.872-19.871,18.335-19.871a17.053,17.053,0,0,1,15.167,8.544l6.528-3.744c-4.128-8.064-12.671-12.287-21.407-12.287-15.263,0-26.879,12.287-26.879,27.263,0,15.263,11.807,27.455,26.879,27.455,10.367,0,18.143-4.8,21.791-10.079Zm56.349,17.279H421.9V365.536h26.879v-7.3H421.9V342.881h28.415V335.49H421.227c-5.472,0-7.392,2.784-7.392,7.3v38.4c0,4.512,2.016,7.3,7.392,7.3H450.89Zm61.053,7.392-4.8-9.7c-3.072-6.24-5.376-10.559-9.6-12.671,7.392-1.536,12-7.008,12-14.5,0-10.943-8.736-16.031-19.967-16.031H471.144v52.893h7.872l.1-19.3h6.528c7.392,0,9.983,4.128,13.151,10.367l4.416,8.928ZM239.7,341.825c-1.536,0-2.5.768-2.976,2.5l-7.2,23.9H249.78l-7.1-23.9C242.1,342.594,241.14,341.825,239.7,341.825ZM37.054,453.468v22.751h4.032v-10.08H54.333V462.4H41.086v-8.927H55.293v-3.744H40.8C38.014,449.916,37.054,451.26,37.054,453.468Zm41.566-.384,7.2,23.231H81.692l-1.92-6.432H67.485l-1.92,6.432H61.533l7.2-23.231a5.174,5.174,0,0,1,9.888,0Zm.1,13.055-3.552-11.9a1.569,1.569,0,0,0-3.072,0l-3.552,11.9Zm36.478,2.88c0,5.472-4.8,7.3-10.943,7.3H95.227v-26.4h9.216c6.432,0,10.367,2.592,10.367,7.008a5.969,5.969,0,0,1-4.512,6.144C113.37,463.739,115.194,465.563,115.194,469.019Zm-16.031-7.584h5.376c4.416,0,6.24-1.344,6.24-4.32,0-2.592-2.3-3.936-6.144-3.936H99.163Zm12.1,7.3c0-2.88-2.112-3.936-6.624-3.936H99.259v8.064h5.28C108.091,472.955,111.258,472.187,111.258,468.731Zm32.062,2.688,2.4,4.8H141.4l-2.208-4.416c-1.536-3.072-2.88-5.184-6.528-5.184H129.4v9.6h-3.936v-26.4h9.216c5.568,0,9.984,2.592,9.984,7.968a7.061,7.061,0,0,1-5.952,7.2C140.729,466.139,141.785,468.347,143.321,471.419Zm-2.88-13.151c0-3.264-2.592-4.608-5.76-4.608H129.5v9.5h5.184C137.945,463.068,140.441,461.436,140.441,458.268ZM155.7,476.219h4.032v-26.4H155.7Zm24.383-15.071c-3.168-.672-5.952-1.248-5.952-4.128,0-2.208,2.208-3.84,4.8-3.84a6.256,6.256,0,0,1,5.952,3.456l3.36-1.728c-1.536-3.648-5.184-5.472-9.216-5.472-4.992,0-9.024,3.264-9.024,7.68,0,5.568,4.9,6.912,8.928,7.68,3.072.576,5.76,1.152,5.76,4.032,0,2.592-2.4,4.032-5.472,4.032s-5.376-1.248-6.336-3.552l-3.36,1.632c1.536,3.648,5.28,5.664,9.792,5.664,5.28,0,9.408-3.264,9.408-7.872C188.823,463.259,184.023,461.916,180.087,461.148Zm46.654,11.039,4.224,4.224h-4.512l-2.016-2.016a10.867,10.867,0,0,1-7.008,2.4c-4.8,0-7.872-2.688-7.872-6.528,0-2.784,1.824-5.088,4.992-6.24A7.775,7.775,0,0,1,213.205,460c0-3.264,2.592-5.76,6.24-5.76a7.185,7.185,0,0,1,6.816,4.416l-2.592,1.536a4.307,4.307,0,0,0-3.936-2.784,3.037,3.037,0,0,0-3.168,2.976c0,1.536,1.056,2.976,2.88,4.9l4.992,4.9a12.842,12.842,0,0,0,2.208-5.088l2.784,1.152A12.991,12.991,0,0,1,226.741,472.187Zm-4.32.192L217.045,467l-.768-.768a4.167,4.167,0,0,0-3.264,3.936c0,2.208,1.92,3.744,4.8,3.744A8.532,8.532,0,0,0,222.421,472.379Zm45.694-11.135H254.1V449.82h-4.032v26.4H254.1V464.891h14.015v11.328h4.032v-26.4h-4.032Zm19.583,3.648h13.343v-3.648H287.7v-7.68H301.9v-3.648h-14.5c-2.688,0-3.744,1.344-3.744,3.648v19.1c0,2.208.96,3.648,3.744,3.648h14.783v-3.648H287.7v-7.776Zm41.566-.192c0,5.28-2.208,8.16-6.816,8.16s-6.816-2.88-6.816-8.16V449.916H311.6V464.8c0,7.3,3.456,11.807,10.847,11.807S333.3,472.091,333.3,464.8V449.916h-4.032Zm23.807-3.552c-3.168-.672-5.952-1.248-5.952-4.128,0-2.208,2.208-3.84,4.8-3.84a6.257,6.257,0,0,1,5.952,3.456l3.36-1.728c-1.536-3.648-5.184-5.472-9.216-5.472-4.992,0-9.024,3.264-9.024,7.68,0,5.568,4.9,6.912,8.928,7.68,3.072.576,5.76,1.152,5.76,4.032,0,2.592-2.4,4.032-5.472,4.032s-5.376-1.248-6.336-3.552l-3.36,1.632c1.536,3.648,5.28,5.664,9.792,5.664,5.28,0,9.408-3.264,9.408-7.872C361.806,463.259,357.006,461.916,353.07,461.148Zm29.663-7.968a8.554,8.554,0,0,1,7.584,4.224l3.264-1.92a11.882,11.882,0,0,0-10.655-6.144,13.682,13.682,0,0,0,0,27.359,11.883,11.883,0,0,0,10.655-6.144l-3.264-1.92a8.443,8.443,0,0,1-7.584,4.224c-5.184,0-9.12-4.32-9.12-9.887C373.613,457.5,377.549,453.18,382.733,453.18Zm37.63,8.064H406.348V449.82h-4.032v26.4h4.032V464.891h14.015v11.328h4.032v-26.4h-4.032Zm27.455,1.824a5.478,5.478,0,0,1,1.632-3.264l8.256-9.888H453.1l-7.392,8.64a6.452,6.452,0,0,0-1.536,2.688h-3.84V449.82H436.3v26.4h4.032V464.891h3.84a11.636,11.636,0,0,0,1.536,2.784l7.3,8.544h4.992l-8.544-9.984C448.394,464.987,447.818,464.027,447.818,463.068Zm22.463,1.824h13.343v-3.648H470.281v-7.68h14.207v-3.648h-14.5c-2.688,0-3.744,1.344-3.744,3.648v19.1c0,2.208.96,3.648,3.744,3.648h14.783v-3.648h-14.5Zm28.607-14.975h-4.032v22.751c0,2.208,1.056,3.648,3.744,3.648h13.439v-3.744H498.887Zm144.569-27.551-69.5-33.022-.672-.288-13.247,6.336c-8.736,4.128-8.736,10.847,0,15.071l15.071,7.2,24.575,11.711-40.99,19.391c-8.736,4.128-8.736,10.847,0,15.071l14.591,6.912,70.076-33.31C652.191,433.309,652.191,426.493,643.456,422.365Zm111.258-50.4c-4.416-2.112-10.08-3.072-15.839-3.072a42.15,42.15,0,0,0-7.872.672l-17.279,34.558L767.866,378.3Zm-158.584,6.24,54.045,25.727-17.759-35.422a39.984,39.984,0,0,0-5.856-.384,39.174,39.174,0,0,0-15.839,3.072ZM805.208,448.86l-41.086-19.583,39.646-18.911c8.736-4.128,8.736-10.847,0-15.071l-13.247-6.336-70.077,33.31c-8.736,4.128-8.736,10.847,0,15.071l70.077,33.406,14.591-6.912C813.943,459.708,813.943,452.988,805.208,448.86Zm-139.1-.576-70.076,33.406,14.591,6.912c8.736,4.128,22.847,4.128,31.583,0l41.086-19.487,39.646,18.911c8.735,4.128,22.847,4.128,31.582,0l13.247-6.336-70.077-33.406C688.958,444.06,674.846,444.06,666.111,448.284Z" transform="translate(0 -11.698)" fill="#3d3d3b"/><g transform="translate(7.2)"><path d="M175.972,4.416H213.6v247h-37.63V145.625H45.13V251.411H7.5v-247H45.13V110.97H175.972ZM465.685,214.933c0,2.208-.384,2.976-1.824,2.976-2.208,0-2.976-1.44-4.032-4.8L355.867,18.815C348.859,5.952,338.587,0,323.42,0h0c-18.815,0-33.5,12.959-33.5,35.422V251.411h35.806V42.046c0-2.976.768-4.416,2.976-4.416,1.824,0,2.592,1.44,3.36,4.416L435.639,236.724c7.008,13.247,19.2,19.2,33.214,19.2,16.991,0,32.83-12.575,32.83-35.038V4.416H465.877V214.933Zm343.279-87.356c0,72.668-55.293,128.25-126.426,128.25-71.9,0-127.194-55.677-127.194-128.25C555.345,56.061,611.022.384,682.538.384,753.671.384,808.964,56.061,808.964,127.578Zm-38.782,0c0-51.261-38.686-91.387-87.74-91.387s-88.508,40.222-88.508,91.387c0,51.933,39.07,92.539,88.508,92.539C731.112,220.117,770.182,179.511,770.182,127.578Z" transform="translate(-7.5)" fill="#8c3d17"/><path d="M784.724,271.6a1.216,1.216,0,0,0-.576.1,178.026,178.026,0,0,1-155.416,0,1.218,1.218,0,0,0-.576-.1H627.1l41.182,82.172.96,1.92,1.824,3.552,2.688,5.376,5.856,11.615,18.335,36.67,1.728,3.36a8.324,8.324,0,0,0,7.392,4.224,8.522,8.522,0,0,0,7.392-4.224l1.728-3.36,17.471-34.942,5.76-11.615,5.664-11.327,40.8-81.692C786.356,272.656,785.684,271.6,784.724,271.6Z" transform="translate(-32.314 -10.877)" fill="#8c3d17"/></g></svg>