<svg xmlns="http://www.w3.org/2000/svg" width="600" height="356.998" viewBox="0 0 600 356.998"><path d="M47.682,330.868l5.248,17.776H37.889l5.322-17.776a2.195,2.195,0,0,1,2.2-1.859A2.4,2.4,0,0,1,47.682,330.868Zm322.772,5.926c0-4.855-3.832-6.926-8.585-6.926h-7.734L354.06,344h7.663C366.838,344,370.453,341.578,370.453,336.794Zm45.127,57.474H15.892A15.818,15.818,0,0,1,4.647,389.59,16.017,16.017,0,0,1,0,378.275V308.091a16.018,16.018,0,0,1,4.648-11.314A15.818,15.818,0,0,1,15.892,292.1H439.137l22.28,44.694a38.673,38.673,0,0,0-15.042,3.427l-10.785,5.141L423.882,351h0l-5.038,2.428-9.791,4.712c-10.43,5-11.565,13.066-11.565,16.35,0,3.213,1.135,11.28,11.565,16.278l6.954,3.356ZM63.434,363.71,52.716,329.083a7.312,7.312,0,0,0-7.38-5.429,7.424,7.424,0,0,0-7.309,5.429L27.31,363.71h6.031l2.838-9.567,18.235-.074,2.838,9.638Zm62.014,0-4.967-34.627a5.79,5.79,0,0,0-6.031-5.355,5.88,5.88,0,0,0-6.1,4.5l-7.45,27.345c-.213.5-.213.714-.568.714-.284,0-.426-.143-.5-.714l-7.592-27.487c-.851-3.142-3.264-4.427-6.1-4.427a5.841,5.841,0,0,0-6.1,5.212l-5.464,34.913h6.1L85.5,330.868c.142-.928.5-1.356,1.064-1.356.5,0,.852.357,1.064,1.142L95.646,359a4.792,4.792,0,0,0,4.754,3.427,4.642,4.642,0,0,0,4.754-3.5l8.088-28.2c.213-.785.5-1.142,1.064-1.142.639,0,.851.5.993,1.357l4.328,32.771Zm69.677,0-10.644-34.627a7.312,7.312,0,0,0-7.379-5.429,7.424,7.424,0,0,0-7.309,5.429L159.076,363.71h6.031l2.838-9.567,18.235-.074,2.838,9.638Zm46.9-39.339h-5.677v33.556c0,.357-.074.5-.284.5-.355,0-.5-.214-.639-.785l-16.462-30.986a5.331,5.331,0,0,0-5.109-3c-2.98,0-5.322,2.07-5.322,5.641v34.413h5.677V330.369c0-.5.142-.714.5-.714.284,0,.426.214.5.714L231.6,361.355a5.612,5.612,0,0,0,5.248,3.07,5.185,5.185,0,0,0,5.18-5.569Zm49.6,20.991h-5.748v9.5c-1.848,2.214-5.677,4.07-10.359,4.07-7.947,0-13.765-6.426-13.765-14.779,0-8.21,5.819-14.779,13.552-14.779a12.589,12.589,0,0,1,11.211,6.355l4.825-2.785c-3.051-6-9.366-9.138-15.823-9.138-11.282,0-19.868,9.138-19.868,20.277,0,11.352,8.727,20.42,19.868,20.42,7.663,0,13.41-3.57,16.107-7.5Zm41.65,12.851H311.846v-11.5h19.867v-5.429H311.846v-11.42h21v-5.5h-21.5c-4.045,0-5.464,2.071-5.464,5.429v28.56c0,3.356,1.49,5.429,5.464,5.429h21.925Zm45.127,5.5-3.548-7.214c-2.271-4.641-3.974-7.853-7.1-9.424a10.559,10.559,0,0,0,8.87-10.784c0-8.139-6.457-11.923-14.759-11.923H348.244V363.7h5.819l.074-14.354h4.825c5.464,0,7.379,3.07,9.721,7.71l3.264,6.64ZM177.173,329.083a2.131,2.131,0,0,0-2.2,1.859l-5.322,17.776h14.972l-5.248-17.776C178.947,329.655,178.238,329.083,177.173,329.083ZM27.388,412.117v16.921h2.98v-7.5H40.16V418.76H30.369V412.12h10.5v-2.785H30.157C28.1,409.475,27.388,410.475,27.388,412.117Zm30.723-.286,5.322,17.278H60.382l-1.419-4.784H49.881l-1.419,4.784h-2.98L50.8,411.831a3.817,3.817,0,0,1,7.309,0Zm.074,9.709-2.625-8.85a1.158,1.158,0,0,0-2.271,0l-2.625,8.85Zm26.963,2.142c0,4.07-3.548,5.429-8.088,5.429H70.387V409.477H77.2c4.754,0,7.663,1.928,7.663,5.212a4.436,4.436,0,0,1-3.335,4.57,4.121,4.121,0,0,1,3.619,4.424ZM73.3,418.042h3.974c3.264,0,4.612-1,4.612-3.213,0-1.928-1.7-2.927-4.541-2.927H73.3Zm8.944,5.429c0-2.142-1.561-2.927-4.9-2.927h-3.98v6h3.9c2.625.068,4.966-.5,4.966-3.073Zm23.7,2,1.774,3.57h-3.2l-1.632-3.284c-1.135-2.285-2.129-3.856-4.825-3.856H95.646v7.14H92.736V409.406h6.812c4.116,0,7.38,1.928,7.38,5.926a5.243,5.243,0,0,1-4.4,5.355c1.491.854,2.271,2.5,3.407,4.781Zm-2.129-9.781c0-2.428-1.916-3.427-4.257-3.427H95.719v7.066h3.832c2.41-.071,4.255-1.285,4.255-3.641Zm11.273,13.348h2.98V409.4h-2.98Zm18.023-11.209c-2.342-.5-4.4-.928-4.4-3.07,0-1.642,1.632-2.856,3.548-2.856a4.62,4.62,0,0,1,4.4,2.57l2.484-1.285c-1.135-2.713-3.832-4.07-6.812-4.07-3.69,0-6.67,2.427-6.67,5.712,0,4.141,3.622,5.141,6.6,5.712,2.271.428,4.257.857,4.257,3,0,1.928-1.774,3-4.045,3s-3.974-.928-4.683-2.642l-2.484,1.214c1.135,2.713,3.9,4.213,7.238,4.213,3.9,0,6.954-2.427,6.954-5.855.074-4.07-3.474-5.069-6.383-5.641Zm34.484,8.21,3.122,3.141h-3.335l-1.49-1.5a8,8,0,0,1-5.18,1.785c-3.548,0-5.819-2-5.819-4.855,0-2.071,1.348-3.784,3.69-4.641a5.807,5.807,0,0,1-.99-3,4.329,4.329,0,0,1,4.612-4.284,5.309,5.309,0,0,1,5.038,3.284l-1.916,1.142a3.184,3.184,0,0,0-2.909-2.07,2.236,2.236,0,0,0-1.634.61,2.265,2.265,0,0,0-.707,1.6c0,1.143.781,2.213,2.129,3.644l3.69,3.644a9.58,9.58,0,0,0,1.632-3.784l2.058.857a9.691,9.691,0,0,1-1.987,4.417Zm-3.193.143-3.971-4-.568-.571a3.094,3.094,0,0,0-2.413,2.927c0,1.642,1.419,2.785,3.548,2.785a6.28,6.28,0,0,0,3.406-1.14Zm33.775-8.282H187.817v-8.5h-2.98v19.635h2.98v-8.426h10.359v8.425h2.98V409.4h-2.98Zm14.475,2.713h9.862V417.9h-9.858v-5.712h10.5v-2.713H212.431c-1.987,0-2.767,1-2.767,2.713v14.205c0,1.642.71,2.713,2.767,2.713h10.927v-2.713H212.652V420.61Zm30.723-.143c0,3.927-1.632,6.069-5.038,6.069s-5.038-2.142-5.038-6.069v-11h-2.977v11.07c0,5.429,2.554,8.781,8.018,8.781s8.022-3.359,8.022-8.781v-11.07h-2.98Zm17.6-2.642c-2.342-.5-4.4-.928-4.4-3.07,0-1.642,1.632-2.856,3.548-2.856a4.62,4.62,0,0,1,4.4,2.57L267,413.188c-1.135-2.713-3.832-4.07-6.812-4.07-3.69,0-6.67,2.427-6.67,5.712,0,4.141,3.622,5.141,6.6,5.712,2.271.428,4.257.857,4.257,3,0,1.928-1.774,3-4.045,3s-3.974-.928-4.683-2.642l-2.484,1.214c1.135,2.713,3.9,4.213,7.238,4.213,3.9,0,6.954-2.427,6.954-5.855.073-4.07-3.475-5.069-6.384-5.641Zm21.925-5.926a6.314,6.314,0,0,1,5.606,3.141l2.413-1.428a8.773,8.773,0,0,0-7.876-4.569,10.175,10.175,0,0,0,0,20.35,8.774,8.774,0,0,0,7.876-4.572L288.5,423.4a6.232,6.232,0,0,1-5.606,3.141c-3.832,0-6.741-3.213-6.741-7.353,0-4.07,2.911-7.283,6.743-7.283Zm27.814,6H300.351v-8.5h-2.98v19.635h2.98v-8.426H310.71v8.425h2.98V409.4h-2.98ZM331,419.257a4.083,4.083,0,0,1,1.206-2.427l6.1-7.354h-3.4l-5.464,6.426a4.808,4.808,0,0,0-1.135,2H325.47v-8.5h-2.98v19.635h2.98v-8.426h2.838a8.664,8.664,0,0,0,1.135,2.07l5.4,6.354h3.69l-6.315-7.425A3.92,3.92,0,0,1,331,419.257Zm16.6,1.357h9.862V417.9h-9.86v-5.712h10.5v-2.713H347.39c-1.987,0-2.767,1-2.767,2.713v14.205c0,1.642.71,2.713,2.767,2.713h10.927v-2.713H347.6Zm21.145-11.138h-2.98V426.4a2.43,2.43,0,0,0,2.767,2.713h9.933v-2.785H368.75Zm106.858-20.491-51.371-24.56-.5-.214-9.791,4.712c-6.457,3.07-6.457,8.068,0,11.209l11.14,5.355,18.165,8.71-30.3,14.422c-6.457,3.07-6.457,8.067,0,11.209l10.785,5.141,51.8-24.774c6.529-3.071,6.529-8.14.072-11.21ZM557.843,351.5a27.662,27.662,0,0,0-11.707-2.285,30.98,30.98,0,0,0-5.819.5l-12.772,25.7,40.02-19.206Zm-117.217,4.641,39.947,19.134L467.447,348.93a29.374,29.374,0,0,0-4.328-.286,28.8,28.8,0,0,0-11.707,2.285ZM595.167,408.69,564.8,394.125l29.3-14.065c6.457-3.07,6.457-8.067,0-11.209l-9.791-4.712-51.8,24.774c-6.457,3.07-6.457,8.068,0,11.209l51.8,24.845,10.785-5.141C601.623,416.758,601.623,411.76,595.167,408.69Zm-102.815-.428-51.8,24.845,10.785,5.141c6.457,3.07,16.887,3.07,23.345,0l30.369-14.493,29.3,14.065c6.456,3.07,16.887,3.07,23.344,0l9.791-4.712-51.8-24.845c-6.454-3.142-16.885-3.142-23.341,0Z" transform="translate(0 -83.552)" fill="#fff"/><g transform="translate(5.322)"><path d="M132.025,3.284h27.813V186.99H132.024V108.308H35.314v78.678H7.5V3.281H35.314V82.533h96.711Zm214.14,156.571c0,1.642-.284,2.213-1.348,2.213-1.632,0-2.2-1.071-2.98-3.57L264.994,13.994C259.814,4.427,252.222,0,241.011,0h0C227.1,0,216.25,9.638,216.25,26.345V186.986h26.466V31.272c0-2.213.568-3.284,2.2-3.284,1.348,0,1.916,1.071,2.484,3.284l76.559,144.791c5.18,9.852,14.192,14.28,24.55,14.28,12.559,0,24.266-9.353,24.266-26.059v-161H346.308V159.856ZM599.9,94.885c0,54.047-40.87,95.385-93.447,95.385-53.145,0-94.015-41.41-94.015-95.385,0-53.19,41.154-94.6,94.015-94.6,52.578,0,93.447,41.41,93.447,94.6Zm-28.665,0c0-38.125-28.595-67.969-64.853-67.969s-65.42,29.915-65.42,67.969c0,38.625,28.878,68.826,65.42,68.826,35.974,0,64.853-30.2,64.853-68.825Z" transform="translate(-7.5 0)" fill="#fff"/><path d="M743.607,271.6a.887.887,0,0,0-.425.074,130.856,130.856,0,0,1-114.875,0,.894.894,0,0,0-.426-.074H627.1l30.439,61.115.71,1.428,1.348,2.642,1.987,4,4.328,8.638,13.552,27.273,1.277,2.5a6.145,6.145,0,0,0,5.464,3.142,6.291,6.291,0,0,0,5.463-3.142l1.277-2.5,12.914-25.988,4.258-8.639,4.186-8.424,30.157-60.758C744.814,272.385,744.317,271.6,743.607,271.6Z" transform="translate(-187.466 -77.688)" fill="#fff"/></g></svg>