<svg xmlns="http://www.w3.org/2000/svg" width="116" height="116" viewBox="0 0 116 116"><g transform="translate(0 -0.051)"><circle cx="58" cy="58" r="58" transform="translate(0 0.051)" fill="#8c3d17"/><path d="M52.393,48.251a9.9,9.9,0,0,1-9.941-9.941,9.9,9.9,0,0,1,9.941-9.941,9.9,9.9,0,0,1,9.941,9.941,9.9,9.9,0,0,1-9.941,9.941Zm0-4.971a4.756,4.756,0,0,0,3.562-1.45,5.009,5.009,0,0,0-7.083-7.083,4.991,4.991,0,0,0,3.521,8.533ZM32.51,71.447v-9.61a6.779,6.779,0,0,1,.828-3.272,6.362,6.362,0,0,1,2.32-2.444,35.717,35.717,0,0,1,4.805-2.444,36.1,36.1,0,0,1,5.136-1.7l6.793,8.782,6.793-8.782a34.455,34.455,0,0,1,5.095,1.7,36.947,36.947,0,0,1,4.764,2.444,6.681,6.681,0,0,1,2.361,2.444,6.525,6.525,0,0,1,.87,3.272v9.61Zm4.971-4.971H50.488L43.694,57.7q-1.657.663-3.231,1.45a31.02,31.02,0,0,0-2.982,1.7Zm16.817,0H67.305V60.843q-1.408-.911-2.941-1.7t-3.19-1.45ZM50.488,66.477ZM54.3,66.477Zm-43.328-.828A4.95,4.95,0,0,1,6,60.678V10.971A4.95,4.95,0,0,1,10.971,6H60.678a4.95,4.95,0,0,1,4.971,4.971V31.433a17,17,0,0,0-2.154-3.065,15.142,15.142,0,0,0-2.817-2.485V10.971H10.971V60.678H27.54v4.971Zm8.284-41.422h28.25a13.944,13.944,0,0,1,2.4-.621,15.093,15.093,0,0,1,2.485-.207V19.255H19.255Zm0,14.084H37.481a15.852,15.852,0,0,1,.207-2.527,13.77,13.77,0,0,1,.621-2.444H19.255Zm0,14.084H32.345a14.947,14.947,0,0,1,2.982-1.781q1.574-.7,3.231-1.367V47.422h-19.3Zm-8.284,8.284v0ZM52.393,38.309Z" transform="translate(19 19.051)" fill="#fff"/></g></svg>