<svg xmlns="http://www.w3.org/2000/svg" width="80" height="80" viewBox="0 0 80 80">
  <g id="icon-sprechzeiten" transform="translate(-1058 -1381)">
    <circle id="Ellipse_1" data-name="Ellipse 1" cx="40" cy="40" r="40" transform="translate(1058 1381)" fill="#8c3d17"/>
    <path id="schedule_FILL0_wght400_GRAD0_opsz48" d="M40.467,43.533l3-3-10.6-10.667v-13.4h-4v15Zm-9.8,13.8a25.8,25.8,0,0,1-10.333-2.1A26.867,26.867,0,0,1,6.1,41a26.473,26.473,0,0,1,0-20.667A26.867,26.867,0,0,1,20.333,6.1,26.473,26.473,0,0,1,41,6.1,26.867,26.867,0,0,1,55.233,20.333a26.473,26.473,0,0,1,0,20.667A26.867,26.867,0,0,1,41,55.233,25.8,25.8,0,0,1,30.667,57.333ZM30.667,30.667Zm0,22.667a21.821,21.821,0,0,0,16-6.667,21.821,21.821,0,0,0,6.667-16,21.821,21.821,0,0,0-6.667-16A21.821,21.821,0,0,0,30.667,8a21.821,21.821,0,0,0-16,6.667A21.821,21.821,0,0,0,8,30.667a21.821,21.821,0,0,0,6.667,16A21.821,21.821,0,0,0,30.667,53.333Z" transform="translate(1067.576 1390.576)" fill="#fff"/>
  </g>
</svg>
