<svg xmlns="http://www.w3.org/2000/svg" width="80" height="80" viewBox="0 0 80 80">
  <g id="icon-allergologie" transform="translate(0)">
    <circle id="Ellipse_1" data-name="Ellipse 1" cx="40" cy="40" r="40" transform="translate(0)" fill="#8c3d17"/>
    <g id="antihistamines" transform="translate(6.914 6.434)">
      <path id="Pfad_566" data-name="Pfad 566" d="M37.554,23.4l3.005,1.5a1,1,0,0,0,.9-1.792L40.241,22.5l1.214-.607a1,1,0,0,0-.9-1.792l-3.005,1.5a1,1,0,0,0,0,1.792Z" transform="translate(0.053 0.029)" fill="#fff"/>
      <path id="Pfad_567" data-name="Pfad 567" d="M30.455,21.608l-3.005-1.5a1,1,0,1,0-.9,1.792l1.214.607-1.214.607a1,1,0,0,0,.9,1.792l3.005-1.5a1,1,0,0,0,0-1.792Z" transform="translate(0.034 0.029)" fill="#fff"/>
      <path id="Pfad_568" data-name="Pfad 568" d="M20,42.014a1,1,0,0,0,.651-.242l7.012-6.01a1,1,0,1,0-1.3-1.52l-7.012,6.01A1,1,0,0,0,20,42.014Z" transform="translate(0.022 0.053)" fill="#fff"/>
      <path id="Pfad_569" data-name="Pfad 569" d="M51.77,40.958l-2.094-.523a10.921,10.921,0,0,0,1.983-7.748L49.674,16.8a15.753,15.753,0,0,0-31.262,0L16.427,32.686a11.02,11.02,0,0,0,.042,3L9.381,41.28a1,1,0,0,0-.213,1.342l1.461,2.191a6.883,6.883,0,0,0,.7.881A6.8,6.8,0,0,0,11,47.76V59.1a1,1,0,0,0,1,1H56.08a1,1,0,0,0,1-1V47.76a7,7,0,0,0-5.311-6.8ZM18.414,32.934,20.4,17.047a13.749,13.749,0,0,1,27.286,0l1.986,15.887A8.947,8.947,0,0,1,47.55,39.9l-6.5-1.623V35.792a11.99,11.99,0,0,0,5.008-9.753V19.027a3.008,3.008,0,0,0-3.005-3.005h-4.2a7.129,7.129,0,0,1-5.491-2.571,5.775,5.775,0,0,0-7.311-1.32,8.031,8.031,0,0,0-4.037,6.958v6.949a11.846,11.846,0,0,0,.918,4.536L18.35,34.2a9.05,9.05,0,0,1,.063-1.264ZM38.049,44.046v-1.98a5.007,5.007,0,0,0-2.215-4.155,11.952,11.952,0,0,0,3.217-.959v4.111A4.962,4.962,0,0,1,38.049,44.046Zm-8.014,2.027V42.066a3.005,3.005,0,1,1,6.01,0v4.007a3.005,3.005,0,1,1-6.01,0Zm5.606-17.086a6.153,6.153,0,0,0-8.92-1.4l-2.144,1.692a9.841,9.841,0,0,1-.552-3.244V19.09a6.023,6.023,0,0,1,3.028-5.219,3.773,3.773,0,0,1,4.778.863,9.13,9.13,0,0,0,7.03,3.292h4.2a1,1,0,0,1,1,1v7.012a10,10,0,0,1-8.074,9.8l.491-1.822a6.152,6.152,0,0,0-.835-5.032Zm-7.679.176A4.149,4.149,0,0,1,34.541,33.5l-.972,3.612a4.882,4.882,0,0,0-.528-.053,5.014,5.014,0,0,0-5.008,5.008v4.007a4.99,4.99,0,0,0,2.043,4.014l-.524,1.947-4.143-4.66a6.824,6.824,0,0,0-7.454-1.846A4.76,4.76,0,0,1,12.3,43.7l-.948-1.422ZM13.007,47.76a4.663,4.663,0,0,1,.078-.723,6.76,6.76,0,0,0,5.574.366,4.808,4.808,0,0,1,5.252,1.3l5.377,6.048a1,1,0,0,0,.749.336,1.026,1.026,0,0,0,.23-.026A1,1,0,0,0,31,54.347l.765-2.84,3.593,6.587H21.02V53.085a1,1,0,0,0-2,0v5.008h-6.01ZM37.642,58.093l-3.865-7.086a5,5,0,0,0,4.134-3.81c3.847,5.092,6.719,8.912,8.194,10.9Zm17.436,0h-6.01V53.085a1,1,0,0,0-2,0v2.946c-.653-.881-6.3-8.377-7.781-10.342a6.968,6.968,0,0,0,1.771-4.624v-.721L51.284,42.9a5,5,0,0,1,3.794,4.86Z" transform="translate(0.005 0)" fill="#fff"/>
      <path id="Pfad_570" data-name="Pfad 570" d="M12.01,29a1,1,0,0,0-1-1H7a1,1,0,0,0,0,2h4.007A1,1,0,0,0,12.01,29Z" transform="translate(0 0.042)" fill="#fff"/>
      <path id="Pfad_571" data-name="Pfad 571" d="M12.9,32.554a1,1,0,0,0-1.344-.448l-4.007,2a1,1,0,1,0,.9,1.792l4.007-2A1,1,0,0,0,12.9,32.554Z" transform="translate(0.002 0.049)" fill="#fff"/>
    </g>
  </g>
</svg>
