<svg xmlns="http://www.w3.org/2000/svg" xmlns:xlink="http://www.w3.org/1999/xlink" width="80" height="80" viewBox="0 0 80 80">
  <defs>
    <clipPath id="clip-path">
      <path id="path2685" d="M0-682.665H54.112v54.112H0Z" transform="translate(0 682.665)" fill="#fff"/>
    </clipPath>
  </defs>
  <g id="icon-sprachdiagnostik" transform="translate(0)">
    <circle id="Ellipse_1" data-name="Ellipse 1" cx="40" cy="40" r="40" transform="translate(0)" fill="#8c3d17"/>
    <g id="g2679" transform="translate(15.402 695.151)">
      <g id="g2681" transform="translate(0 -682.665)">
        <g id="g2683" clip-path="url(#clip-path)">
          <g id="g2689" transform="translate(48.153 29.207)">
            <path id="path2691" d="M-18.453-3.377a1.58,1.58,0,0,1-1.122-.465,1.585,1.585,0,0,1,0-2.242,7.871,7.871,0,0,0,2.323-5.606,7.87,7.87,0,0,0-2.321-5.6,1.585,1.585,0,0,1,0-2.242,1.585,1.585,0,0,1,2.242,0,11.02,11.02,0,0,1,3.25,7.846,11.02,11.02,0,0,1-3.253,7.849A1.58,1.58,0,0,1-18.453-3.377Z" transform="translate(20.039 20)" fill="#fff"/>
          </g>
          <g id="g2693" transform="translate(43.671 33.691)">
            <path id="path2695" d="M-18.415-12.345a1.58,1.58,0,0,1-1.121-.464,1.585,1.585,0,0,1,0-2.242,1.587,1.587,0,0,0,0-2.242,1.585,1.585,0,0,1,0-2.242,1.585,1.585,0,0,1,2.242,0,4.761,4.761,0,0,1,0,6.726A1.58,1.58,0,0,1-18.415-12.345Z" transform="translate(20 20)" fill="#fff"/>
          </g>
          <g id="g2697" transform="translate(0 1.057)">
            <path id="path2699" d="M-453.78-273.333a19.574,19.574,0,0,1,19.552,19.552v1.634l3.961,5.942a1.585,1.585,0,0,1,.16,1.451,1.585,1.585,0,0,1-1.094.966l-3.027.757v2.99a1.585,1.585,0,0,1-.745,1.344l-2.076,1.3,2.076,1.3a1.585,1.585,0,0,1,.745,1.344v2.114a4.761,4.761,0,0,1-4.756,4.756h-4.756v4.967a1.585,1.585,0,0,1-1.585,1.585h-19.024a1.585,1.585,0,0,1-1.585-1.585v-13.157a19.292,19.292,0,0,1-7.4-15.17v-2.534A19.574,19.574,0,0,1-453.78-273.333Zm19.627,27.015-2.98-4.469a1.585,1.585,0,0,1-.266-.879v-2.114a16.4,16.4,0,0,0-16.382-16.382,16.4,16.4,0,0,0-16.382,16.382v2.534a16.113,16.113,0,0,0,6.734,13.086,1.585,1.585,0,0,1,.664,1.29v12.365h15.853v-4.967a1.585,1.585,0,0,1,1.585-1.585h6.341a1.587,1.587,0,0,0,1.585-1.585v-1.235l-3.482-2.176a1.585,1.585,0,0,1-.745-1.344,1.585,1.585,0,0,1,.745-1.344l3.482-2.176v-3.349a1.585,1.585,0,0,1,1.2-1.538Z" transform="translate(473.332 273.333)" fill="#fff"/>
          </g>
          <g id="g2701" transform="translate(8.199 18.311)">
            <path id="path2703" d="M-112.341-142.916a5.606,5.606,0,0,1-3.669-1.512,10.316,10.316,0,0,1-2.776-10.361,5.415,5.415,0,0,1,2.935-3.4,4.721,4.721,0,0,1,3.928.185,1.585,1.585,0,0,1,.732,2.119,1.585,1.585,0,0,1-2.119.732,1.565,1.565,0,0,0-1.318-.112,2.337,2.337,0,0,0-1.155,1.49,7.138,7.138,0,0,0,1.866,6.963,2.337,2.337,0,0,0,1.745.713,1.565,1.565,0,0,0,1.086-.756,1.585,1.585,0,0,1,2.2-.425,1.585,1.585,0,0,1,.425,2.2,4.721,4.721,0,0,1-3.309,2.124A4.494,4.494,0,0,1-112.341-142.916Z" transform="translate(119.223 158.531)" fill="#fff"/>
          </g>
        </g>
      </g>
    </g>
  </g>
</svg>
