<svg xmlns="http://www.w3.org/2000/svg" width="428" height="427.465" viewBox="0 0 428 427.465">
  <path id="icon-stethoskop" d="M250.1,431.465q-59.92,0-99.51-42T111,289.155V270.43q-45.475-5.885-76.237-40.392T4,148.45V25.4H68.2V4h32.1V78.9H68.2V57.5H36.1v90.95q0,37.985,26.483,64.467T127.05,239.4q37.985,0,64.467-26.482T218,148.45V57.5H185.9V78.9H153.8V4h32.1V25.4h64.2V148.45q0,47.08-30.762,81.587T143.1,270.43v18.725q0,45.475,30.228,77.842T250.1,399.365q43.335,0,75.168-32.1t31.832-78.11v-41.2a58.3,58.3,0,0,1-30.763-20.865A56.841,56.841,0,0,1,314.3,191.25q0-24.61,17.12-41.73t41.73-17.12q24.61,0,41.73,17.12T432,191.25a56.842,56.842,0,0,1-12.038,35.845A58.3,58.3,0,0,1,389.2,247.96v41.2q0,59.385-40.928,100.848T250.1,431.465ZM373.15,218a26.49,26.49,0,1,0-18.992-7.758A25.83,25.83,0,0,0,373.15,218ZM373.15,191.25Z" transform="translate(-4 -4)" opacity="0.08"/>
</svg>
