<svg xmlns="http://www.w3.org/2000/svg" width="80" height="80" viewBox="0 0 80 80">
  <g id="icon-hno-diagnostik" transform="translate(0)">
    <circle id="Ellipse_1" data-name="Ellipse 1" cx="40" cy="40" r="40" transform="translate(0)" fill="#8c3d17"/>
    <g id="loupe" transform="translate(14.931 14.931)">
      <g id="Gruppe_172" data-name="Gruppe 172" transform="translate(28.277 7.161)">
        <g id="Gruppe_171" data-name="Gruppe 171">
          <path id="Pfad_552" data-name="Pfad 552" d="M242.2,61.037a1.173,1.173,0,1,0,1.173,1.173A1.173,1.173,0,0,0,242.2,61.037Z" transform="translate(-241.025 -61.037)" fill="#fff"/>
        </g>
      </g>
      <g id="Gruppe_174" data-name="Gruppe 174" transform="translate(9.507 11.853)">
        <g id="Gruppe_173" data-name="Gruppe 173">
          <path id="Pfad_553" data-name="Pfad 553" d="M103.328,110.419H98.636a1.173,1.173,0,0,0-1.113.8l-1.233,3.7-1.233-3.7a1.173,1.173,0,0,0-1.113-.8h-1.43l-2.124-8.5a1.173,1.173,0,0,0-2.276,0l-2.124,8.5H82.212a1.173,1.173,0,1,0,0,2.346H86.9a1.173,1.173,0,0,0,1.138-.888l1.208-4.832,1.208,4.832a1.173,1.173,0,0,0,1.138.888h1.5L95.176,119a1.173,1.173,0,0,0,2.226,0l2.079-6.236h3.847a1.173,1.173,0,0,0,0-2.346Z" transform="translate(-81.039 -101.034)" fill="#fff"/>
        </g>
      </g>
      <g id="Gruppe_176" data-name="Gruppe 176" transform="translate(0 0)">
        <g id="Gruppe_175" data-name="Gruppe 175" transform="translate(0 0)">
          <path id="Pfad_554" data-name="Pfad 554" d="M58.133,49.846C56.615,48.46,41.2,34.406,39.019,32.421a21.117,21.117,0,1,0-6.62,6.611c.017.019,17.649,19.309,17.664,19.322a5.865,5.865,0,1,0,8.071-8.507ZM7.852,34.394a18.77,18.77,0,1,1,26.579.034A18.76,18.76,0,0,1,7.852,34.394Zm26.617,3.391-.037-.039-.092-.092a21.226,21.226,0,0,0,3.309-3.308l2.7,2.46-3.542,3.542ZM56.693,56.69a3.517,3.517,0,0,1-5.1-.135l-13.2-14.472,3.695-3.695,14.475,13.2A3.514,3.514,0,0,1,56.693,56.69Z" transform="translate(-0.003 -0.001)" fill="#fff"/>
        </g>
      </g>
      <g id="Gruppe_178" data-name="Gruppe 178" transform="translate(4.735 4.741)">
        <g id="Gruppe_177" data-name="Gruppe 177">
          <path id="Pfad_555" data-name="Pfad 555" d="M69.471,46.4a1.173,1.173,0,1,0-1.812,1.491,14.085,14.085,0,1,1-7.181-4.642,1.173,1.173,0,1,0,.612-2.265A16.417,16.417,0,1,0,69.471,46.4Z" transform="translate(-40.362 -40.411)" fill="#fff"/>
        </g>
      </g>
    </g>
  </g>
</svg>
