<svg xmlns="http://www.w3.org/2000/svg" width="80" height="80" viewBox="0 0 80 80">
  <g id="icon-aesthetik" transform="translate(0)">
    <circle id="Ellipse_1" data-name="Ellipse 1" cx="40" cy="40" r="40" transform="translate(0)" fill="#8c3d17"/>
    <g id="face" transform="translate(8 9)">
      <path id="Pfad_581" data-name="Pfad 581" d="M5,63H7a3.666,3.666,0,0,1,3.107-3.637l15.049-2.376A1,1,0,0,0,26,56V51.119a10.51,10.51,0,0,0,12,0V56a1,1,0,0,0,.844.987l15.049,2.376A3.666,3.666,0,0,1,57,63h2a5.654,5.654,0,0,0-4.795-5.611L40,55.146V49.558A24.609,24.609,0,0,0,47.974,36.23l.051-.23H49a4.006,4.006,0,0,0,4-4V30a4,4,0,0,0-3-3.859v-6a5.517,5.517,0,0,1,1.828,3.094l.191.957a1,1,0,0,0,1.961,0l.191-.957a5.541,5.541,0,0,1,4.07-4.269,1,1,0,0,0,0-1.94,5.539,5.539,0,0,1-4.07-4.269l-.191-.957a1,1,0,0,0-1.961,0l-.191.957A5.517,5.517,0,0,1,50,15.855V14A10.086,10.086,0,0,0,43.88,4.718L42.5,4.128A16.105,16.105,0,0,0,33,1,19.021,19.021,0,0,0,14,20v6.142A4,4,0,0,0,11,30v2a4.006,4.006,0,0,0,4,4h.974l.051.229A24.609,24.609,0,0,0,24,49.557v5.588L9.8,57.389A5.654,5.654,0,0,0,5,63ZM53,15.3A7.6,7.6,0,0,0,55.522,18,7.57,7.57,0,0,0,53,20.7,7.6,7.6,0,0,0,50.478,18,7.578,7.578,0,0,0,53,15.3ZM51,30v2a2,2,0,0,1-2,2h-.53l1.3-5.845A2,2,0,0,1,51,30ZM48,14v2.95c-.082.025-.159.059-.242.08a1,1,0,0,0,0,1.94c.083.021.161.055.242.08v6.744a13.922,13.922,0,0,1-10.87-10.328A13.185,13.185,0,0,0,42.8,6.432l.289.124A8.088,8.088,0,0,1,48,14ZM33,3a14.089,14.089,0,0,1,7.922,2.471l-.088.615a11.2,11.2,0,0,1-5.349,8.056,1.008,1.008,0,0,0-.267.233A31.749,31.749,0,0,1,16,25.815V20A17.019,17.019,0,0,1,33,3ZM15,34a2,2,0,0,1-2-2V30a2,2,0,0,1,1.232-1.846L15.531,34Zm3.953,4.964c.342-.016.686-.022,1.022-.065l-.254-1.984A10.45,10.45,0,0,1,18.384,37h-.078c-.112-.4-.236-.8-.327-1.2l-1.773-7.978A33.746,33.746,0,0,0,35.523,17.107,15.91,15.91,0,0,0,47.8,27.8l-1.777,8c-.09.409-.214.805-.326,1.205h-.078a10.45,10.45,0,0,1-1.338-.085L44.024,38.9c.336.043.68.049,1.022.065a22.605,22.605,0,0,1-8.161,10.5,8.647,8.647,0,0,1-9.77,0,22.6,22.6,0,0,1-8.161-10.5Z" fill="#fff"/>
      <path id="Pfad_582" data-name="Pfad 582" d="M39,30a4.212,4.212,0,0,0,3.789-2.342l.1-.211-1.789-.9-.1.212a2.236,2.236,0,0,1-4,0l-.1-.211-1.789.9.1.21A4.212,4.212,0,0,0,39,30Z" fill="#fff"/>
      <path id="Pfad_583" data-name="Pfad 583" d="M25,30a4.212,4.212,0,0,0,3.789-2.342l.1-.211-1.789-.9-.1.212a2.236,2.236,0,0,1-4,0l-.1-.211-1.789.9.1.21A4.212,4.212,0,0,0,25,30Z" fill="#fff"/>
      <path id="Pfad_584" data-name="Pfad 584" d="M29.013,37.84a1,1,0,0,0,.28.867l2,2,1.414-1.414-1.161-1.161A4.594,4.594,0,0,0,33,34.764V30H31v4.764a2.6,2.6,0,0,1-1.447,2.342,1,1,0,0,0-.54.734Z" fill="#fff"/>
      <path id="Pfad_585" data-name="Pfad 585" d="M38.052,43.167l.5-.335-1.109-1.664-.5.335a9.048,9.048,0,0,1-9.885,0l-.5-.335-1.109,1.664.5.335a10.906,10.906,0,0,0,12.1,0Z" fill="#fff"/>
      <path id="Pfad_586" data-name="Pfad 586" d="M36.443,35.017a12.536,12.536,0,0,0,1.612,1.452l1.205-1.6A10.678,10.678,0,0,1,37.9,33.651Z" fill="#fff"/>
      <path id="Pfad_587" data-name="Pfad 587" d="M39.9,37.62a12.573,12.573,0,0,0,2.01.819l.59-1.912a10.429,10.429,0,0,1-1.688-.687Z" fill="#fff"/>
      <path id="Pfad_588" data-name="Pfad 588" d="M36.78,32.216a10.539,10.539,0,0,1-.861-1.609l-1.838.787A12.56,12.56,0,0,0,35.1,33.308Z" fill="#fff"/>
      <path id="Pfad_589" data-name="Pfad 589" d="M27.557,35.017,26.1,33.652a10.832,10.832,0,0,1-1.356,1.222l1.2,1.6a12.762,12.762,0,0,0,1.612-1.453Z" fill="#fff"/>
      <path id="Pfad_590" data-name="Pfad 590" d="M21.5,36.527l.59,1.912a12.611,12.611,0,0,0,2.01-.819l-.912-1.779A10.461,10.461,0,0,1,21.5,36.527Z" fill="#fff"/>
      <path id="Pfad_591" data-name="Pfad 591" d="M27.22,32.216,28.9,33.308a12.472,12.472,0,0,0,1.023-1.914l-1.838-.787a10.539,10.539,0,0,1-.861,1.609Z" fill="#fff"/>
      <path id="Pfad_592" data-name="Pfad 592" d="M8.686,48.95A4.733,4.733,0,0,1,11.8,52.308l.233.934a1,1,0,0,0,1.94,0l.233-.934a4.733,4.733,0,0,1,3.111-3.358,1.038,1.038,0,0,0,.133-.056,1,1,0,0,0,0-1.791,1.167,1.167,0,0,0-.131-.055A4.732,4.732,0,0,1,14.2,43.691l-.233-.936a1,1,0,0,0-1.941,0l-.234.934A4.737,4.737,0,0,1,8.684,47.05a1,1,0,0,0,0,1.9ZM13,45.979A6.711,6.711,0,0,0,14.836,48,6.719,6.719,0,0,0,13,50.021,6.7,6.7,0,0,0,11.164,48,6.715,6.715,0,0,0,13,45.979Z" fill="#fff"/>
    </g>
  </g>
</svg>
