<svg xmlns="http://www.w3.org/2000/svg" xmlns:xlink="http://www.w3.org/1999/xlink" width="80" height="80" viewBox="0 0 80 80">
  <defs>
    <clipPath id="clip-path">
      <path id="path2883" d="M0-682.665H48v48H0Z" transform="translate(0 682.665)" fill="#fff"/>
    </clipPath>
  </defs>
  <g id="icon-schlafstoerung" transform="translate(0)">
    <circle id="Ellipse_1" data-name="Ellipse 1" cx="40" cy="40" r="40" transform="translate(0)" fill="#8c3d17"/>
    <g id="g2877" transform="translate(16 700.665)">
      <g id="g2879" transform="translate(0 -682.665)">
        <g id="g2881" clip-path="url(#clip-path)">
          <g id="g2887" transform="translate(41.873 5.317)">
            <path id="path2889" d="M-45.883-311.914l.994-.994-1,.989a7.67,7.67,0,0,1-2.4-5.439v-13.373a7.662,7.662,0,0,1,2.388-5.432,1.417,1.417,0,0,1,2,0,1.4,1.4,0,0,1,.006,1.977,4.9,4.9,0,0,0-1.577,3.456v13.373a4.878,4.878,0,0,0,1.554,3.432l-.971,1.017Z" transform="translate(48.284 336.573)" fill="#fff"/>
          </g>
          <g id="g2891" transform="translate(1.33 5.715)">
            <path id="path2893" d="M-18.53,10.517a1.394,1.394,0,0,1-.993-.41,1.4,1.4,0,0,1-.006-1.977,4.9,4.9,0,0,0,1.577-3.456V-8.7a4.878,4.878,0,0,0-1.554-3.433l.971-1.017.994-.994-.994.994,1-.989a7.67,7.67,0,0,1,2.4,5.439V4.675a7.663,7.663,0,0,1-2.388,5.431A1.423,1.423,0,0,1-18.53,10.517Z" transform="translate(19.936 14.142)" fill="#fff"/>
          </g>
          <g id="g2895" transform="translate(5.728 1.746)">
            <path id="path2897" d="M-474.658-9.647h-25.681a7.663,7.663,0,0,1-5.431-2.388l.982-1.007,1-.986a4.894,4.894,0,0,0,3.448,1.569h25.681a4.878,4.878,0,0,0,3.432-1.554l1.017.971.989,1A7.67,7.67,0,0,1-474.658-9.647Z" transform="translate(505.77 14.028)" fill="#fff"/>
          </g>
          <g id="g2899" transform="translate(39.884 27.576)">
            <path id="path2901" d="M-15.679-68.441a5.635,5.635,0,0,1-3.909-1.748,1.406,1.406,0,0,1,0-1.989,1.406,1.406,0,0,1,1.989,0c.949.949,2.182,1.132,2.652.663s.286-1.7-.663-2.652a1.406,1.406,0,0,1,0-1.989,1.406,1.406,0,0,1,1.989,0c2.044,2.044,2.336,4.956.663,6.629A3.78,3.78,0,0,1-15.679-68.441Z" transform="translate(20 76.568)" fill="#fff"/>
          </g>
          <g id="g2903" transform="translate(0.001 27.576)">
            <path id="path2905" d="M-35.055-11.874a3.779,3.779,0,0,1-2.72-1.085A3.921,3.921,0,0,1-38.8-16.335a5.843,5.843,0,0,1,1.69-3.253,1.406,1.406,0,0,1,1.989,0,1.406,1.406,0,0,1,0,1.989,3.065,3.065,0,0,0-.895,1.662,1.188,1.188,0,0,0,.232.99c.469.469,1.7.285,2.652-.663a1.406,1.406,0,0,1,1.989,0,1.406,1.406,0,0,1,0,1.989A5.636,5.636,0,0,1-35.055-11.874Z" transform="translate(38.85 20)" fill="#fff"/>
          </g>
          <g id="g2907" transform="translate(-0.01 0.001)">
            <path id="path2909" d="M-92.833-30.734a1.4,1.4,0,0,1-.994-.412c-2.044-2.044-2.336-4.956-.663-6.629A3.921,3.921,0,0,1-91.114-38.8a5.843,5.843,0,0,1,3.253,1.69,1.406,1.406,0,0,1,0,1.989,1.406,1.406,0,0,1-1.989,0,3.065,3.065,0,0,0-1.662-.895,1.188,1.188,0,0,0-.99.232c-.469.469-.286,1.7.663,2.652a1.406,1.406,0,0,1,0,1.989A1.4,1.4,0,0,1-92.833-30.734Z" transform="translate(95.575 38.85)" fill="#fff"/>
          </g>
          <g id="g2911" transform="translate(39.884 -0.01)">
            <path id="path2913" d="M-71.185-87.448a1.4,1.4,0,0,1-.994-.412,1.406,1.406,0,0,1,0-1.989c.949-.949,1.132-2.182.663-2.652s-1.7-.286-2.652.663a1.406,1.406,0,0,1-1.989,0,1.406,1.406,0,0,1,0-1.989c2.045-2.044,4.956-2.336,6.629-.663s1.382,4.585-.663,6.629A1.4,1.4,0,0,1-71.185-87.448Z" transform="translate(76.569 95.575)" fill="#fff"/>
          </g>
          <g id="g2915" transform="translate(9.469 11.25)">
            <path id="path2917" d="M-12.969-9.687h-5.625a1.406,1.406,0,0,1-1.258-.777,1.406,1.406,0,0,1,.133-1.473l3.938-5.25h-2.812A1.406,1.406,0,0,1-20-18.594,1.406,1.406,0,0,1-18.594-20h5.625a1.406,1.406,0,0,1,1.258.777,1.406,1.406,0,0,1-.133,1.473l-3.938,5.25h2.812a1.406,1.406,0,0,1,1.406,1.406A1.406,1.406,0,0,1-12.969-9.687Z" transform="translate(20 20)" fill="#fff"/>
          </g>
          <g id="g2919" transform="translate(20.25 8.438)">
            <path id="path2921" d="M-13.906-10.937h-4.687a1.406,1.406,0,0,1-1.258-.777,1.406,1.406,0,0,1,.133-1.473l3-4h-1.875A1.406,1.406,0,0,1-20-18.594,1.406,1.406,0,0,1-18.594-20h4.688a1.406,1.406,0,0,1,1.258.777,1.406,1.406,0,0,1-.133,1.473l-3,4h1.875A1.406,1.406,0,0,1-12.5-12.344,1.406,1.406,0,0,1-13.906-10.937Z" transform="translate(20 20)" fill="#fff"/>
          </g>
          <g id="g2923" transform="translate(11.344 22.688)">
            <path id="path2925" d="M-167.343-314.687A12.671,12.671,0,0,1-180-327.343,12.671,12.671,0,0,1-167.343-340a12.671,12.671,0,0,1,12.656,12.656A12.671,12.671,0,0,1-167.343-314.687Zm0-22.5a9.855,9.855,0,0,0-9.844,9.844,9.855,9.855,0,0,0,9.844,9.844,9.855,9.855,0,0,0,9.844-9.844A9.855,9.855,0,0,0-167.343-337.187Z" transform="translate(180 339.999)" fill="#fff"/>
          </g>
          <g id="g2927" transform="translate(22.594 22.688)">
            <path id="path2929" d="M-18.594-14.375A1.406,1.406,0,0,1-20-15.781v-2.812A1.406,1.406,0,0,1-18.594-20a1.406,1.406,0,0,1,1.406,1.406v2.813A1.406,1.406,0,0,1-18.594-14.375Z" transform="translate(20 20)" fill="#fff"/>
          </g>
          <g id="g2931" transform="translate(22.594 42.375)">
            <path id="path2933" d="M-18.594-14.375A1.406,1.406,0,0,1-20-15.781v-2.812A1.406,1.406,0,0,1-18.594-20a1.406,1.406,0,0,1,1.406,1.406v2.813A1.406,1.406,0,0,1-18.594-14.375Z" transform="translate(20 20)" fill="#fff"/>
          </g>
          <g id="g2935" transform="translate(11.344 33.938)">
            <path id="path2937" d="M-15.781-17.187h-2.812A1.406,1.406,0,0,1-20-18.594,1.406,1.406,0,0,1-18.594-20h2.813a1.406,1.406,0,0,1,1.406,1.406A1.406,1.406,0,0,1-15.781-17.187Z" transform="translate(20 20)" fill="#fff"/>
          </g>
          <g id="g2939" transform="translate(31.031 33.938)">
            <path id="path2941" d="M-15.781-17.187h-2.812A1.406,1.406,0,0,1-20-18.594,1.406,1.406,0,0,1-18.594-20h2.813a1.406,1.406,0,0,1,1.406,1.406A1.406,1.406,0,0,1-15.781-17.187Z" transform="translate(20 20)" fill="#fff"/>
          </g>
          <g id="g2943" transform="translate(19.942 30.188)">
            <path id="path2945" d="M-56.306-10.786A1.4,1.4,0,0,1-57.3-11.2a1.406,1.406,0,0,1,0-1.989l2.24-2.24v-3.168A1.406,1.406,0,0,1-53.654-20a1.406,1.406,0,0,1,1.406,1.406v3.75a1.406,1.406,0,0,1-.412.994L-55.311-11.2A1.4,1.4,0,0,1-56.306-10.786Z" transform="translate(57.712 20)" fill="#fff"/>
          </g>
          <g id="g2947" transform="translate(32.959 29.565)">
            <path id="path2949" d="M-110.155-43.483a1.4,1.4,0,0,1-1-.414,5.377,5.377,0,0,0-3.787-1.574h-2.141a1.406,1.406,0,0,1-1.406-1.406,1.406,1.406,0,0,1,1.406-1.406h2.141a8.208,8.208,0,0,1,5.781,2.4,1.406,1.406,0,0,1-.005,1.989A1.4,1.4,0,0,1-110.155-43.483Z" transform="translate(118.486 48.284)" fill="#fff"/>
          </g>
          <g id="g2951" transform="translate(5.304 29.565)">
            <path id="path2953" d="M-117.08-15.2a1.4,1.4,0,0,1-.992-.409,1.406,1.406,0,0,1-.005-1.989A8.208,8.208,0,0,1-112.3-20h2.141a1.406,1.406,0,0,1,1.406,1.406,1.406,1.406,0,0,1-1.406,1.406H-112.3a5.377,5.377,0,0,0-3.787,1.574A1.4,1.4,0,0,1-117.08-15.2Z" transform="translate(118.486 20)" fill="#fff"/>
          </g>
        </g>
      </g>
    </g>
  </g>
</svg>
