<svg xmlns="http://www.w3.org/2000/svg" width="80" height="80" viewBox="0 0 80 80">
  <g id="icon-ambulante-op" transform="translate(0)">
    <circle id="Ellipse_1" data-name="Ellipse 1" cx="40" cy="40" r="40" transform="translate(0)" fill="#8c3d17"/>
    <g id="surgery" transform="translate(12.375 -18.435)">
      <path id="Pfad_572" data-name="Pfad 572" d="M97.36,85.866a4.349,4.349,0,0,1-3.73-6.594L99.975,68.76a11.516,11.516,0,0,1,3.743-3.8l8.771-5.483a6.465,6.465,0,0,1,3.116-.971,1.4,1.4,0,0,1,.134,2.8,3.663,3.663,0,0,0-1.765.55L105.2,67.335a8.718,8.718,0,0,0-2.83,2.875L96.027,80.722a1.549,1.549,0,0,0,2.421,1.9l.5-.5a1.4,1.4,0,1,1,1.98,1.979l-.5.5a4.333,4.333,0,0,1-3.067,1.275Z" transform="translate(-82.965 -22.423)" fill="#fff"/>
      <path id="Pfad_573" data-name="Pfad 573" d="M5.657,281.053A8.678,8.678,0,0,1,4.663,281a7,7,0,0,1-4.246-2.029,1.4,1.4,0,0,1,0-1.979l17.1-17.1A1.4,1.4,0,0,1,19.5,261.87L3.552,277.807c3.486,1.662,9.186-1.586,13.563-5.822l.03-3.393a1.4,1.4,0,0,1,1.4-1.387h.013a1.4,1.4,0,0,1,1.387,1.412l-.035,3.972a1.4,1.4,0,0,1-.41.977,28.1,28.1,0,0,1-9.952,6.761,11.777,11.777,0,0,1-3.891.725Z" transform="translate(0 -201.736)" fill="#fff"/>
      <path id="Pfad_574" data-name="Pfad 574" d="M452.37,120.607a6.956,6.956,0,0,1-4.636-1.766l-.538-.478a1.4,1.4,0,1,1,1.866-2.089l.537.481a4.161,4.161,0,0,0,2.772,1.056,1.4,1.4,0,0,1,0,2.8Z" transform="translate(-398.529 -73.645)" fill="#fff"/>
      <path id="Pfad_575" data-name="Pfad 575" d="M189.749,206.085a20.24,20.24,0,0,1-8.347-1.8,13.5,13.5,0,0,0-5.539-1.318H163.7a5.258,5.258,0,0,1-5.258-5.258c0-.015,0-.031,0-.046a5.274,5.274,0,0,1,5.258-5.212H179.6a2.066,2.066,0,0,0,2.066-2.064,1.4,1.4,0,0,1,2.8,0,4.869,4.869,0,0,1-4.862,4.863H163.7a2.459,2.459,0,0,0,0,4.918h12.161a16.277,16.277,0,0,1,6.693,1.566,17.45,17.45,0,0,0,12.224.811,1.4,1.4,0,1,1,.806,2.681A20.266,20.266,0,0,1,189.749,206.085Z" transform="translate(-141.344 -138.832)" fill="#fff"/>
      <path id="Pfad_576" data-name="Pfad 576" d="M178.03,455.782h-4.459a1.4,1.4,0,1,1,0-2.8h4.459a1.4,1.4,0,1,1,0,2.8Z" transform="translate(-153.591 -374.348)" fill="#fff"/>
      <path id="Pfad_577" data-name="Pfad 577" d="M272.466,455.782h-4.457a1.4,1.4,0,1,1,0-2.8h4.457a1.4,1.4,0,0,1,0,2.8Z" transform="translate(-237.841 -374.348)" fill="#fff"/>
      <path id="Pfad_578" data-name="Pfad 578" d="M366.905,455.782h-4.459a1.4,1.4,0,0,1,0-2.8h4.459a1.4,1.4,0,1,1,0,2.8Z" transform="translate(-322.09 -374.348)" fill="#fff"/>
      <path id="Pfad_579" data-name="Pfad 579" d="M198.149,56.418a1.4,1.4,0,0,1-.99-2.39L216.6,34.587a4.281,4.281,0,0,1,6.054,6.054L207.288,56.009a1.4,1.4,0,0,1-1.979-1.979l15.367-15.368a1.482,1.482,0,1,0-2.1-2.1L199.138,56.009a1.394,1.394,0,0,1-.989.41Z" transform="translate(-175.517)" fill="#fff"/>
      <path id="Pfad_580" data-name="Pfad 580" d="M212.366,295.718c-.081-.231-.175-.469-.28-.7a1.4,1.4,0,1,0-2.545,1.168c.066.144.125.291.175.437a2.593,2.593,0,0,1-.049,2.189,1.008,1.008,0,0,1-.826.454c-1.158.086-2.89-1.119-3.557-2.985q-.059-.233-.136-.468a3.977,3.977,0,0,1-.069-.4,1.459,1.459,0,1,0-2.793.761q.1.216.179.44.055.214.123.423a2.337,2.337,0,0,1-.164,1.786,1.011,1.011,0,0,1-.827.454c-1.168.086-2.923-1.14-3.576-3.035a3.979,3.979,0,0,1-.187-.819c0-.014,0-.027,0-.041a1.4,1.4,0,1,0-2.776.361,6.741,6.741,0,0,0,.323,1.407c.97,2.827,3.608,4.932,6.11,4.932.105,0,.212,0,.312-.012a3.789,3.789,0,0,0,2.957-1.7,6.079,6.079,0,0,0,3.975,1.7c.105,0,.212,0,.314-.012a3.789,3.789,0,0,0,2.959-1.7A5.277,5.277,0,0,0,212.366,295.718Z" transform="translate(-173.996 -232.661)" fill="#fff"/>
    </g>
  </g>
</svg>
